<?xml version="1.0" encoding="UTF-8"?>
<svg id="_Слой_1" data-name="Слой_1" xmlns="http://www.w3.org/2000/svg" version="1.1" viewBox="0 0 595.28 841.89">
  <!-- Generator: Adobe Illustrator 29.0.0, SVG Export Plug-In . SVG Version: 2.1.0 Build 186)  -->
  <defs>
    <style>
      .st0, .st1 {
        stroke: #e6007e;
        stroke-miterlimit: 10;
        stroke-width: .25px;
      }

      .st2 {
        display: none;
        opacity: .5;
      }

      .st1 {
        fill: none;
      }
    </style>
  </defs>
  <g id="_модульная_сетка_на_надпись__x28_1_x29_" data-name="модульная_сетка_на_надпись__x28_1_x29_" class="st2">
    <line class="st1" x1="279.7" y1="353.36" x2="475.82" y2="353.36"/>
    <line class="st1" x1="279.7" y1="377.79" x2="475.82" y2="377.79"/>
    <line class="st1" x1="279.66" y1="358.69" x2="475.77" y2="358.69"/>
    <line class="st1" x1="279.7" y1="360.37" x2="475.82" y2="360.37"/>
    <line class="st1" x1="279.67" y1="362.98" x2="475.78" y2="362.98"/>
    <line class="st1" x1="279.66" y1="368.27" x2="475.77" y2="368.27"/>
    <line class="st1" x1="279.66" y1="372.56" x2="475.71" y2="372.56"/>
    <line class="st1" x1="279.7" y1="370.8" x2="475.82" y2="370.8"/>
    <line class="st1" x1="283.92" y1="350.79" x2="283.92" y2="379.35"/>
    <line class="st1" x1="290.56" y1="350.79" x2="290.56" y2="379.35"/>
    <line class="st1" x1="309.8" y1="350.79" x2="309.8" y2="379.35"/>
    <line class="st1" x1="316.55" y1="350.79" x2="316.55" y2="379.35"/>
    <line class="st1" x1="299.05" y1="350.79" x2="299.05" y2="379.35"/>
    <line class="st1" x1="305.81" y1="350.79" x2="305.81" y2="379.35"/>
    <line class="st1" x1="336.09" y1="350.67" x2="336.09" y2="379.23"/>
    <line class="st1" x1="342.61" y1="350.67" x2="342.61" y2="379.23"/>
    <line class="st1" x1="351.08" y1="350.67" x2="351.08" y2="379.23"/>
    <line class="st1" x1="357.8" y1="350.67" x2="357.8" y2="379.23"/>
    <line class="st1" x1="362.2" y1="350.56" x2="362.2" y2="379.12"/>
    <line class="st1" x1="368.92" y1="350.56" x2="368.92" y2="379.12"/>
    <line class="st1" x1="373.24" y1="350.56" x2="373.24" y2="379.12"/>
    <line class="st1" x1="379.97" y1="350.56" x2="379.97" y2="379.12"/>
    <line class="st1" x1="388.97" y1="350.56" x2="388.97" y2="379.12"/>
    <line class="st1" x1="395.69" y1="350.56" x2="395.69" y2="379.12"/>
    <line class="st1" x1="399.68" y1="350.56" x2="399.68" y2="379.12"/>
    <line class="st1" x1="406.4" y1="350.56" x2="406.4" y2="379.12"/>
    <line class="st1" x1="423.45" y1="350.56" x2="423.45" y2="379.12"/>
    <line class="st1" x1="430.05" y1="350.56" x2="430.05" y2="379.12"/>
    <line class="st1" x1="438.56" y1="350.56" x2="438.56" y2="379.12"/>
    <line class="st1" x1="445.16" y1="350.56" x2="445.16" y2="379.12"/>
    <line class="st1" x1="449.45" y1="350.56" x2="449.45" y2="379.12"/>
    <line class="st1" x1="456.05" y1="350.56" x2="456.05" y2="379.12"/>
    <line class="st1" x1="464.56" y1="350.56" x2="464.56" y2="379.12"/>
    <line class="st1" x1="471.16" y1="350.56" x2="471.16" y2="379.12"/>
    <line class="st1" x1="325.44" y1="350.79" x2="325.44" y2="379.35"/>
    <line class="st1" x1="332.19" y1="350.79" x2="332.19" y2="379.35"/>
    <line class="st1" x1="378.5" y1="351.48" x2="396.57" y2="378.2"/>
    <line class="st1" x1="371.48" y1="351.77" x2="389.54" y2="378.48"/>
    <line class="st1" x1="306.42" y1="363.3" x2="301.05" y2="366.36"/>
    <line class="st1" x1="301" y1="364.7" x2="306.38" y2="367.76"/>
  </g>
  <g id="_модульная_сетка_надписи__x28_2_x29_" data-name="модульная_сетка_надписи__x28_2_x29_" class="st2">
    <line class="st0" x1="281.05" y1="392.49" x2="528.71" y2="392.49"/>
    <line class="st0" x1="281.05" y1="416.16" x2="528.61" y2="416.16"/>
    <line class="st0" x1="280.99" y1="397.66" x2="528.65" y2="397.66"/>
    <line class="st0" x1="281.05" y1="399.29" x2="528.65" y2="399.29"/>
    <line class="st0" x1="281.01" y1="401.83" x2="528.61" y2="401.83"/>
    <line class="st0" x1="281" y1="406.95" x2="528.56" y2="406.95"/>
    <line class="st0" x1="280.99" y1="411.11" x2="528.48" y2="411.11"/>
    <line class="st0" x1="281.05" y1="409.4" x2="528.61" y2="409.4"/>
    <line class="st0" x1="332.62" y1="390" x2="332.62" y2="417.69"/>
    <line class="st0" x1="338.56" y1="390" x2="338.56" y2="417.69"/>
    <line class="st0" x1="345.16" y1="390" x2="345.16" y2="417.69"/>
    <line class="st0" x1="311.42" y1="390" x2="311.42" y2="417.69"/>
    <line class="st0" x1="317.66" y1="390" x2="317.66" y2="417.69"/>
    <line class="st0" x1="298.93" y1="390" x2="298.93" y2="417.69"/>
    <line class="st0" x1="305.48" y1="390" x2="305.48" y2="417.69"/>
    <line class="st0" x1="283.93" y1="390" x2="283.93" y2="417.69"/>
    <line class="st0" x1="290.47" y1="390" x2="290.47" y2="417.69"/>
    <line class="st0" x1="326.37" y1="390" x2="326.37" y2="417.69"/>
    <line class="st0" x1="358.14" y1="390" x2="358.14" y2="417.69"/>
    <line class="st0" x1="361.42" y1="389.88" x2="361.42" y2="417.58"/>
    <line class="st0" x1="347.73" y1="390" x2="347.73" y2="417.69"/>
    <line class="st0" x1="354.71" y1="390" x2="354.71" y2="417.69"/>
    <line class="st0" x1="391.61" y1="390.78" x2="376.45" y2="413.96"/>
    <line class="st0" x1="385.7" y1="389.23" x2="374.37" y2="406.55"/>
    <line class="st0" x1="365.74" y1="391.13" x2="380.9" y2="414.31"/>
    <line class="st0" x1="371.66" y1="389.58" x2="382.99" y2="406.9"/>
    <line class="st0" x1="362.85" y1="390.78" x2="347.69" y2="413.96"/>
    <line class="st0" x1="357.09" y1="389.4" x2="345.76" y2="406.73"/>
    <line class="st0" x1="337.14" y1="391.13" x2="352.3" y2="414.31"/>
    <line class="st0" x1="343.06" y1="389.75" x2="354.39" y2="407.07"/>
    <line class="st0" x1="389.96" y1="389.88" x2="389.96" y2="417.58"/>
    <line class="st0" x1="395.84" y1="389.88" x2="395.84" y2="417.58"/>
    <line class="st0" x1="402.36" y1="389.88" x2="402.36" y2="417.58"/>
    <line class="st0" x1="410.93" y1="389.77" x2="410.93" y2="417.47"/>
    <line class="st0" x1="417.45" y1="389.77" x2="417.45" y2="417.47"/>
    <line class="st0" x1="423.34" y1="389.88" x2="423.34" y2="417.58"/>
    <line class="st0" x1="429.82" y1="390.05" x2="429.82" y2="417.75"/>
    <line class="st0" x1="438.56" y1="390.05" x2="438.56" y2="417.75"/>
    <line class="st0" x1="444.89" y1="390.05" x2="444.89" y2="417.75"/>
    <line class="st0" x1="450.85" y1="389.77" x2="450.85" y2="417.47"/>
    <line class="st0" x1="457.37" y1="389.77" x2="457.37" y2="417.47"/>
    <line class="st0" x1="466.03" y1="390.05" x2="466.03" y2="417.75"/>
    <line class="st0" x1="472.42" y1="390.05" x2="472.42" y2="417.75"/>
    <line class="st0" x1="478.43" y1="389.77" x2="478.43" y2="417.47"/>
    <line class="st0" x1="484.83" y1="389.77" x2="484.83" y2="417.47"/>
    <line class="st0" x1="493.85" y1="389.77" x2="493.85" y2="417.47"/>
    <line class="st0" x1="500.25" y1="389.77" x2="500.25" y2="417.47"/>
    <line class="st0" x1="506.26" y1="389.77" x2="506.26" y2="417.47"/>
    <line class="st0" x1="512.66" y1="389.77" x2="512.66" y2="417.47"/>
    <line class="st0" x1="520.7" y1="389.77" x2="520.7" y2="417.47"/>
    <line class="st0" x1="527.1" y1="389.77" x2="527.1" y2="417.47"/>
    <line class="st0" x1="367.2" y1="389.88" x2="367.2" y2="417.58"/>
    <line class="st0" x1="373.75" y1="389.88" x2="373.75" y2="417.58"/>
    <line class="st0" x1="428.41" y1="390.95" x2="445.92" y2="416.86"/>
    <line class="st0" x1="421.59" y1="391.22" x2="439.11" y2="417.14"/>
    <line class="st0" x1="475.69" y1="405.23" x2="466.59" y2="418.18"/>
    <line class="st0" x1="473.4" y1="398.21" x2="459.63" y2="417.82"/>
    <line class="st0" x1="459.97" y1="391.41" x2="473.59" y2="410.82"/>
    <line class="st0" x1="465.7" y1="389.3" x2="476.02" y2="404"/>
  </g>
  <g id="_модульная_сетка" data-name="модульная_сетка" class="st2">
    <line class="st1" x1="159.59" y1="300" x2="78.19" y2="346.68"/>
    <line class="st1" x1="160.73" y1="320.11" x2="79.33" y2="366.79"/>
    <line class="st1" x1="164.47" y1="351.13" x2="83.07" y2="397.82"/>
    <line class="st1" x1="242.13" y1="404.96" x2="160.73" y2="451.64"/>
    <line class="st1" x1="243.67" y1="425.09" x2="162.27" y2="471.77"/>
    <line class="st1" x1="82.35" y1="404.96" x2="163.75" y2="451.64"/>
    <line class="st1" x1="80.27" y1="424.67" x2="161.67" y2="471.35"/>
    <line class="st1" x1="165.99" y1="300.4" x2="247.39" y2="347.09"/>
    <line class="st1" x1="163.91" y1="320.11" x2="245.31" y2="366.79"/>
    <line class="st1" x1="160.73" y1="375.15" x2="114.07" y2="401.91"/>
    <line class="st1" x1="99.45" y1="380.24" x2="160.73" y2="415.39"/>
    <line class="st1" x1="111.93" y1="366.79" x2="160.73" y2="394.78"/>
    <line class="st1" x1="87.25" y1="330.37" x2="87.25" y2="438.42"/>
    <line class="st1" x1="156.09" y1="294.44" x2="156.09" y2="473.55"/>
    <line class="st1" x1="186.73" y1="294.44" x2="186.73" y2="473.55"/>
    <line class="st1" x1="105.22" y1="302.01" x2="105.22" y2="481.12"/>
    <line class="st1" x1="138.25" y1="301.93" x2="138.25" y2="481.04"/>
    <line class="st1" x1="237.17" y1="323.34" x2="237.17" y2="437.16"/>
    <line class="st1" x1="219.18" y1="322.43" x2="219.18" y2="449.35"/>
    <line class="st1" x1="168.61" y1="293.76" x2="168.61" y2="473.55"/>
    <line class="st1" x1="242.13" y1="377.77" x2="69.96" y2="377.77"/>
    <line class="st1" x1="242.13" y1="392.25" x2="69.96" y2="392.25"/>
  </g>
  <g id="_знак" data-name="знак">
    <polygon points="240.37 364.16 240.37 392.84 226.3 392.84 226.3 372.44 200.48 357.57 200.48 439.65 226.3 424.76 226.3 404.25 240.37 404.25 240.37 433.01 234.23 436.55 200.43 456.02 193.46 460.03 186.42 464.09 186.42 333.07 240.37 364.16"/>
    <path d="M176.41,333.07l-54.19,31.08v68.85s14.07,7.92,14.07,7.92l26.05,15.04,14.07,8.12v-59.84l-6.24-3.6-3.68-2.11,9.92-5.7v-59.76ZM162.34,439.68l-26.05-14.92v-20.51h11.95l14.1,8.12v27.31ZM162.34,383.77l-15.74,9.06h-10.32v-20.39l26.05-14.87v26.2Z"/>
  </g>
  <g id="_командос_надпись" data-name="командос_надпись">
    <g id="_надпись" data-name="надпись">
      <g id="_командос" data-name="командос">
        <polygon points="350.66 404.42 350.66 424.81 345.09 424.81 345.08 413.65 341.84 418.4 341.41 419.04 340.15 419.04 339.92 418.71 336.48 413.65 336.47 424.81 330.89 424.81 330.89 404.42 336.48 404.42 340.28 410.06 341.27 410.06 345.08 404.42 350.66 404.42"/>
        <polygon points="327.6 404.42 327.6 424.82 322.02 424.82 322.01 413.65 318.78 418.41 318.31 419.04 317.08 419.04 316.85 418.71 313.41 413.65 313.4 424.82 307.82 424.82 307.82 404.42 313.41 404.42 317.21 410.07 318.21 410.07 322.01 404.42 327.6 404.42"/>
        <path d="M353.95,404.43v20.39h5.64v-8h7.5v8.01h5.64v-20.39h-18.78ZM367.1,412.52h-7.5v-3.54h7.5v3.54Z"/>
        <path d="M416.53,409.32l-.22-.34-1.21-1.7-2.01-2.81h-1.85l-13.15-.02v20.37h5.64s4.01-.03,4.01-.03h5.4s2.67-3.78,2.67-3.78l.51-.72.02-.02.54-.77v-9.7l-.35-.49ZM411.23,418.79l-1.09,1.51h-6.42v-11.31h6.41l1.1,1.53v8.27Z"/>
        <path d="M285.48,404.42v20.39h18.92v-20.39h-18.92ZM298.82,420.28h-7.77v-11.32h7.77v11.32Z"/>
        <path d="M420.16,404.42v20.39h19.13v-20.39h-19.13ZM433.66,420.28h-7.85v-11.33h7.85v11.33Z"/>
        <polygon points="282.05 404.44 282.05 410.2 276.54 410.2 276.54 408.99 269.21 408.99 269.21 420.3 276.54 420.3 276.54 419.05 282.05 419.05 282.05 424.83 263.71 424.82 263.71 404.44 282.05 404.44"/>
        <polygon points="376.03 404.44 381.61 404.44 389.2 415.71 389.2 404.44 394.8 404.44 394.8 424.83 389.2 424.83 381.61 413.67 381.59 424.83 376.03 424.83 376.03 404.44"/>
      </g>
    </g>
    <polygon points="462.36 412.5 462.36 424.93 442.59 424.93 442.59 419.1 448.23 419.1 448.23 420.59 456.73 420.59 456.73 416.85 442.59 416.85 442.59 404.36 462.36 404.36 462.36 410.16 456.73 410.16 456.73 408.72 448.09 408.72 448.09 412.5 462.36 412.5"/>
  </g>
  <g id="_бизнес_надпись" data-name="бизнес_надпись">
    <polygon points="358.37 364.01 366.3 364.01 366.3 393.02 358.45 393.02 358.37 364.01"/>
    <polygon points="370.68 364.04 378.63 364.04 389.43 380.07 389.44 364.04 397.4 364.04 397.4 393.05 389.44 393.05 378.63 377.17 378.61 393.05 370.68 393.05 370.68 364.04"/>
    <polygon points="402.03 364.04 429.9 364.04 429.9 370.21 410.03 370.21 410.02 375.54 429.9 375.54 429.9 381.66 410.03 381.66 410.03 386.93 429.9 386.93 429.9 393.05 402.03 393.05 402.03 364.04"/>
    <polygon points="321.04 363.97 321.04 393.05 294.38 393.05 294.38 364.05 302.36 364.05 302.36 386.58 313.07 386.58 313.07 363.97 321.04 363.97"/>
    <polygon points="353.74 375.5 353.74 393.01 325.87 393.01 325.87 384.8 333.82 384.8 333.82 386.89 345.81 386.89 345.81 381.62 325.87 381.62 325.87 364.02 353.74 364.02 353.74 372.2 345.81 372.2 345.81 370.16 333.63 370.16 333.63 375.5 353.74 375.5"/>
    <polygon points="462.36 375.53 462.36 393.04 434.5 393.04 434.5 384.83 442.44 384.83 442.44 386.92 454.43 386.92 454.43 381.65 434.5 381.65 434.5 364.05 462.36 364.05 462.36 372.23 454.43 372.23 454.43 370.19 442.25 370.19 442.25 375.53 462.36 375.53"/>
    <polygon points="494.86 375.53 494.86 393.04 467 393.04 467 384.83 474.94 384.83 474.94 386.92 486.93 386.92 486.93 381.65 467 381.65 467 364.05 494.86 364.05 494.86 372.23 486.93 372.23 486.93 370.19 474.75 370.19 474.75 375.53 494.86 375.53"/>
    <path d="M289.55,375.5h-.02v-11.49h-25.82v29.01h25.84v-12.2l-4.07-2.34,4.07-2.33v-.65ZM281.6,386.89h-9.93v-5.27h9.93v5.27ZM281.6,375.5h-10.11v-5.34h10.11v5.34Z"/>
  </g>
</svg>