<?xml version="1.0" encoding="UTF-8"?>
<svg id="_Слой_1" data-name="Слой_1" xmlns="http://www.w3.org/2000/svg" version="1.1" viewBox="0 0 595.28 841.89">
  <!-- Generator: Adobe Illustrator 29.0.0, SVG Export Plug-In . SVG Version: 2.1.0 Build 186)  -->
  <defs>
    <style>
      .st0, .st1 {
        stroke: #e6007e;
        stroke-miterlimit: 10;
        stroke-width: .25px;
      }

      .st2 {
        display: none;
        opacity: .5;
      }

      .st1 {
        fill: none;
      }
    </style>
  </defs>
  <g id="_модульная_сетка_на_надпись__x28_1_x29_" data-name="модульная_сетка_на_надпись__x28_1_x29_" class="st2">
    <line class="st1" x1="279.7" y1="353.36" x2="475.82" y2="353.36"/>
    <line class="st1" x1="279.7" y1="377.79" x2="475.82" y2="377.79"/>
    <line class="st1" x1="279.66" y1="358.69" x2="475.77" y2="358.69"/>
    <line class="st1" x1="279.7" y1="360.37" x2="475.82" y2="360.37"/>
    <line class="st1" x1="279.67" y1="362.98" x2="475.78" y2="362.98"/>
    <line class="st1" x1="279.66" y1="368.27" x2="475.77" y2="368.27"/>
    <line class="st1" x1="279.66" y1="372.56" x2="475.71" y2="372.56"/>
    <line class="st1" x1="279.7" y1="370.8" x2="475.82" y2="370.8"/>
    <line class="st1" x1="283.92" y1="350.79" x2="283.92" y2="379.35"/>
    <line class="st1" x1="290.56" y1="350.79" x2="290.56" y2="379.35"/>
    <line class="st1" x1="309.8" y1="350.79" x2="309.8" y2="379.35"/>
    <line class="st1" x1="316.55" y1="350.79" x2="316.55" y2="379.35"/>
    <line class="st1" x1="299.05" y1="350.79" x2="299.05" y2="379.35"/>
    <line class="st1" x1="305.81" y1="350.79" x2="305.81" y2="379.35"/>
    <line class="st1" x1="336.09" y1="350.67" x2="336.09" y2="379.23"/>
    <line class="st1" x1="342.61" y1="350.67" x2="342.61" y2="379.23"/>
    <line class="st1" x1="351.08" y1="350.67" x2="351.08" y2="379.23"/>
    <line class="st1" x1="357.8" y1="350.67" x2="357.8" y2="379.23"/>
    <line class="st1" x1="362.2" y1="350.56" x2="362.2" y2="379.12"/>
    <line class="st1" x1="368.92" y1="350.56" x2="368.92" y2="379.12"/>
    <line class="st1" x1="373.24" y1="350.56" x2="373.24" y2="379.12"/>
    <line class="st1" x1="379.97" y1="350.56" x2="379.97" y2="379.12"/>
    <line class="st1" x1="388.97" y1="350.56" x2="388.97" y2="379.12"/>
    <line class="st1" x1="395.69" y1="350.56" x2="395.69" y2="379.12"/>
    <line class="st1" x1="399.68" y1="350.56" x2="399.68" y2="379.12"/>
    <line class="st1" x1="406.4" y1="350.56" x2="406.4" y2="379.12"/>
    <line class="st1" x1="423.45" y1="350.56" x2="423.45" y2="379.12"/>
    <line class="st1" x1="430.05" y1="350.56" x2="430.05" y2="379.12"/>
    <line class="st1" x1="438.56" y1="350.56" x2="438.56" y2="379.12"/>
    <line class="st1" x1="445.16" y1="350.56" x2="445.16" y2="379.12"/>
    <line class="st1" x1="449.45" y1="350.56" x2="449.45" y2="379.12"/>
    <line class="st1" x1="456.05" y1="350.56" x2="456.05" y2="379.12"/>
    <line class="st1" x1="464.56" y1="350.56" x2="464.56" y2="379.12"/>
    <line class="st1" x1="471.16" y1="350.56" x2="471.16" y2="379.12"/>
    <line class="st1" x1="325.44" y1="350.79" x2="325.44" y2="379.35"/>
    <line class="st1" x1="332.19" y1="350.79" x2="332.19" y2="379.35"/>
    <line class="st1" x1="378.5" y1="351.48" x2="396.57" y2="378.2"/>
    <line class="st1" x1="371.48" y1="351.77" x2="389.54" y2="378.48"/>
    <line class="st1" x1="306.42" y1="363.3" x2="301.05" y2="366.36"/>
    <line class="st1" x1="301" y1="364.7" x2="306.38" y2="367.76"/>
  </g>
  <g id="_модульная_сетка_надписи__x28_2_x29_" data-name="модульная_сетка_надписи__x28_2_x29_" class="st2">
    <line class="st0" x1="281.05" y1="392.49" x2="528.71" y2="392.49"/>
    <line class="st0" x1="281.05" y1="416.16" x2="528.61" y2="416.16"/>
    <line class="st0" x1="280.99" y1="397.66" x2="528.65" y2="397.66"/>
    <line class="st0" x1="281.05" y1="399.29" x2="528.65" y2="399.29"/>
    <line class="st0" x1="281.01" y1="401.83" x2="528.61" y2="401.83"/>
    <line class="st0" x1="281" y1="406.95" x2="528.56" y2="406.95"/>
    <line class="st0" x1="280.99" y1="411.11" x2="528.48" y2="411.11"/>
    <line class="st0" x1="281.05" y1="409.4" x2="528.61" y2="409.4"/>
    <line class="st0" x1="332.62" y1="390" x2="332.62" y2="417.69"/>
    <line class="st0" x1="338.56" y1="390" x2="338.56" y2="417.69"/>
    <line class="st0" x1="345.16" y1="390" x2="345.16" y2="417.69"/>
    <line class="st0" x1="311.42" y1="390" x2="311.42" y2="417.69"/>
    <line class="st0" x1="317.66" y1="390" x2="317.66" y2="417.69"/>
    <line class="st0" x1="298.93" y1="390" x2="298.93" y2="417.69"/>
    <line class="st0" x1="305.48" y1="390" x2="305.48" y2="417.69"/>
    <line class="st0" x1="283.93" y1="390" x2="283.93" y2="417.69"/>
    <line class="st0" x1="290.47" y1="390" x2="290.47" y2="417.69"/>
    <line class="st0" x1="326.37" y1="390" x2="326.37" y2="417.69"/>
    <line class="st0" x1="358.14" y1="390" x2="358.14" y2="417.69"/>
    <line class="st0" x1="361.42" y1="389.88" x2="361.42" y2="417.58"/>
    <line class="st0" x1="347.73" y1="390" x2="347.73" y2="417.69"/>
    <line class="st0" x1="354.71" y1="390" x2="354.71" y2="417.69"/>
    <line class="st0" x1="391.61" y1="390.78" x2="376.45" y2="413.96"/>
    <line class="st0" x1="385.7" y1="389.23" x2="374.37" y2="406.55"/>
    <line class="st0" x1="365.74" y1="391.13" x2="380.9" y2="414.31"/>
    <line class="st0" x1="371.66" y1="389.58" x2="382.99" y2="406.9"/>
    <line class="st0" x1="362.85" y1="390.78" x2="347.69" y2="413.96"/>
    <line class="st0" x1="357.09" y1="389.4" x2="345.76" y2="406.73"/>
    <line class="st0" x1="337.14" y1="391.13" x2="352.3" y2="414.31"/>
    <line class="st0" x1="343.06" y1="389.75" x2="354.39" y2="407.07"/>
    <line class="st0" x1="389.96" y1="389.88" x2="389.96" y2="417.58"/>
    <line class="st0" x1="395.84" y1="389.88" x2="395.84" y2="417.58"/>
    <line class="st0" x1="402.36" y1="389.88" x2="402.36" y2="417.58"/>
    <line class="st0" x1="410.93" y1="389.77" x2="410.93" y2="417.47"/>
    <line class="st0" x1="417.45" y1="389.77" x2="417.45" y2="417.47"/>
    <line class="st0" x1="423.34" y1="389.88" x2="423.34" y2="417.58"/>
    <line class="st0" x1="429.82" y1="390.05" x2="429.82" y2="417.75"/>
    <line class="st0" x1="438.56" y1="390.05" x2="438.56" y2="417.75"/>
    <line class="st0" x1="444.89" y1="390.05" x2="444.89" y2="417.75"/>
    <line class="st0" x1="450.85" y1="389.77" x2="450.85" y2="417.47"/>
    <line class="st0" x1="457.37" y1="389.77" x2="457.37" y2="417.47"/>
    <line class="st0" x1="466.03" y1="390.05" x2="466.03" y2="417.75"/>
    <line class="st0" x1="472.42" y1="390.05" x2="472.42" y2="417.75"/>
    <line class="st0" x1="478.43" y1="389.77" x2="478.43" y2="417.47"/>
    <line class="st0" x1="484.83" y1="389.77" x2="484.83" y2="417.47"/>
    <line class="st0" x1="493.85" y1="389.77" x2="493.85" y2="417.47"/>
    <line class="st0" x1="500.25" y1="389.77" x2="500.25" y2="417.47"/>
    <line class="st0" x1="506.26" y1="389.77" x2="506.26" y2="417.47"/>
    <line class="st0" x1="512.66" y1="389.77" x2="512.66" y2="417.47"/>
    <line class="st0" x1="520.7" y1="389.77" x2="520.7" y2="417.47"/>
    <line class="st0" x1="527.1" y1="389.77" x2="527.1" y2="417.47"/>
    <line class="st0" x1="367.2" y1="389.88" x2="367.2" y2="417.58"/>
    <line class="st0" x1="373.75" y1="389.88" x2="373.75" y2="417.58"/>
    <line class="st0" x1="428.41" y1="390.95" x2="445.92" y2="416.86"/>
    <line class="st0" x1="421.59" y1="391.22" x2="439.11" y2="417.14"/>
    <line class="st0" x1="475.69" y1="405.23" x2="466.59" y2="418.18"/>
    <line class="st0" x1="473.4" y1="398.21" x2="459.63" y2="417.82"/>
    <line class="st0" x1="459.97" y1="391.41" x2="473.59" y2="410.82"/>
    <line class="st0" x1="465.7" y1="389.3" x2="476.02" y2="404"/>
  </g>
  <g id="_модульная_сетка" data-name="модульная_сетка" class="st2">
    <line class="st1" x1="159.59" y1="300" x2="78.19" y2="346.68"/>
    <line class="st1" x1="160.73" y1="320.11" x2="79.33" y2="366.79"/>
    <line class="st1" x1="164.47" y1="351.13" x2="83.07" y2="397.82"/>
    <line class="st1" x1="242.13" y1="404.96" x2="160.73" y2="451.64"/>
    <line class="st1" x1="243.67" y1="425.09" x2="162.27" y2="471.77"/>
    <line class="st1" x1="82.35" y1="404.96" x2="163.75" y2="451.64"/>
    <line class="st1" x1="80.27" y1="424.67" x2="161.67" y2="471.35"/>
    <line class="st1" x1="165.99" y1="300.4" x2="247.39" y2="347.09"/>
    <line class="st1" x1="163.91" y1="320.11" x2="245.31" y2="366.79"/>
    <line class="st1" x1="160.73" y1="375.15" x2="114.07" y2="401.91"/>
    <line class="st1" x1="99.45" y1="380.24" x2="160.73" y2="415.39"/>
    <line class="st1" x1="111.93" y1="366.79" x2="160.73" y2="394.78"/>
    <line class="st1" x1="87.25" y1="330.37" x2="87.25" y2="438.42"/>
    <line class="st1" x1="156.09" y1="294.44" x2="156.09" y2="473.55"/>
    <line class="st1" x1="186.73" y1="294.44" x2="186.73" y2="473.55"/>
    <line class="st1" x1="105.22" y1="302.01" x2="105.22" y2="481.12"/>
    <line class="st1" x1="138.25" y1="301.93" x2="138.25" y2="481.04"/>
    <line class="st1" x1="237.17" y1="323.34" x2="237.17" y2="437.16"/>
    <line class="st1" x1="219.18" y1="322.43" x2="219.18" y2="449.35"/>
    <line class="st1" x1="168.61" y1="293.76" x2="168.61" y2="473.55"/>
    <line class="st1" x1="242.13" y1="377.77" x2="69.96" y2="377.77"/>
    <line class="st1" x1="242.13" y1="392.25" x2="69.96" y2="392.25"/>
  </g>
  <g id="_бизнес" data-name="бизнес">
    <g>
      <polygon points="332.18 383.6 337.43 383.6 337.43 402.83 332.23 402.83 332.18 383.6"/>
      <polygon points="340.86 383.6 346.13 383.6 353.29 394.23 353.3 383.6 358.57 383.6 358.57 402.83 353.3 402.83 346.13 392.3 346.12 402.83 340.86 402.83 340.86 383.6"/>
      <polygon points="361.72 383.6 377.32 383.6 377.32 387.69 367.02 387.69 367.01 391.23 377.32 391.23 377.32 395.28 367.02 395.28 367.02 398.77 377.32 398.77 377.32 402.83 361.72 402.83 361.72 383.6"/>
      <polygon points="308.48 383.56 308.48 402.83 290.82 402.83 290.82 383.61 296.1 383.61 296.1 398.54 303.2 398.54 303.2 383.56 308.48 383.56"/>
      <polygon points="397.59 391.23 397.59 402.83 380.46 402.83 380.46 397.39 385.73 397.39 385.73 398.77 392.32 398.77 392.32 395.28 380.46 395.28 380.46 383.6 397.57 383.6 397.57 389.04 392.32 389.04 392.32 387.69 385.61 387.69 385.61 391.23 397.59 391.23"/>
      <polygon points="328.68 391.22 328.68 402.82 311.55 402.82 311.55 397.38 316.82 397.38 316.82 398.77 323.41 398.77 323.41 395.27 311.55 395.27 311.55 383.61 328.66 383.61 328.66 389.03 323.41 389.03 323.41 387.68 316.7 387.68 316.7 391.22 328.68 391.22"/>
      <polygon points="418.1 391.23 418.1 402.84 400.98 402.84 400.98 397.39 406.24 397.39 406.24 398.78 412.83 398.78 412.83 395.29 400.98 395.29 400.98 383.61 418.08 383.62 418.08 389.04 412.83 389.04 412.83 387.69 406.12 387.69 406.12 391.23 418.1 391.23"/>
    </g>
    <path d="M287.61,391.2h-.01v-7.62h-17.11v19.23h17.13v-8.09l-2.7-1.55,2.7-1.54v-.43ZM282.34,398.75h-6.58v-3.49h6.58v3.49ZM282.34,391.2h-6.7v-3.54h6.7v3.54Z"/>
  </g>
  <g id="_командос" data-name="командос">
    <polygon points="354.01 414.22 354.01 432.69 348.96 432.69 348.94 422.58 346.01 426.89 345.62 427.46 344.48 427.46 344.27 427.16 341.16 422.58 341.15 432.69 336.1 432.69 336.1 414.22 341.16 414.22 344.6 419.33 345.5 419.33 348.94 414.22 354.01 414.22"/>
    <polygon points="331.41 414.23 331.41 432.7 326.36 432.7 326.35 422.58 323.42 426.89 323 427.46 321.88 427.46 321.68 427.16 318.57 422.58 318.55 432.7 313.5 432.7 313.5 414.23 318.57 414.23 322.01 419.34 322.91 419.34 326.35 414.23 331.41 414.23"/>
    <path d="M358.69,414.22v18.47h5.11v-7.25h6.79v7.25h5.11v-18.47h-17.01ZM370.59,421.55h-6.79v-3.2h6.79v3.2Z"/>
    <path d="M418.76,418.64l-.2-.3-1.1-1.54-1.82-2.55h-1.67l-11.91-.02v18.45h5.11s3.63-.03,3.63-.03h4.89s2.42-3.42,2.42-3.42l.46-.65.02-.02.49-.69v-8.78l-.32-.44ZM413.97,427.21l-.99,1.37h-5.81v-10.24h5.8l1,1.39v7.49Z"/>
    <path d="M292.1,414.23v18.47h16.72v-18.47h-16.72ZM303.89,428.59h-6.87v-10.25h6.87v10.25Z"/>
    <path d="M423.75,414.23v18.47h17.33v-18.47h-17.33ZM435.97,428.6h-7.11v-10.26h7.11v10.26Z"/>
    <polygon points="287.41 414.23 287.41 419.45 282.31 419.45 282.31 418.35 275.51 418.35 275.51 428.59 282.31 428.59 282.31 427.46 287.41 427.46 287.41 432.7 270.41 432.69 270.41 414.23 287.41 414.23"/>
    <polygon points="380.38 414.23 385.43 414.23 392.31 424.43 392.31 414.23 397.38 414.23 397.38 432.69 392.31 432.69 385.43 422.58 385.42 432.69 380.38 432.69 380.38 414.23"/>
    <polygon points="462.2 421.55 462.2 432.69 445.76 432.69 445.76 427.46 450.82 427.46 450.82 428.79 457.15 428.79 457.15 425.44 445.76 425.44 445.76 414.23 462.19 414.23 462.19 419.45 457.15 419.45 457.15 418.15 450.7 418.15 450.7 421.55 462.2 421.55"/>
  </g>
  <g>
    <polygon points="259 374.16 259 402.84 244.94 402.84 244.94 382.44 219.11 367.57 219.11 449.65 244.94 434.76 244.94 414.25 259 414.25 259 443.01 252.86 446.55 219.06 466.02 212.09 470.03 205.05 474.09 205.05 343.07 259 374.16"/>
    <path d="M193.27,343.07l-54.19,31.08v68.85s14.07,8.04,14.07,8.04l26.05,14.92,14.07,8.12v-59.84l-6.24-3.6-3.68-2.11,9.92-5.7v-59.76ZM179.19,449.68l-26.05-14.92v-20.51h11.95l14.1,8.12v27.31ZM179.19,393.77l-15.74,9.06h-10.32v-20.39l26.05-14.87v26.2Z"/>
  </g>
</svg>