<?xml version="1.0" encoding="UTF-8"?>
<svg id="_Слой_1" data-name="Слой_1" xmlns="http://www.w3.org/2000/svg" version="1.1" viewBox="0 0 595.28 841.89">
  <!-- Generator: Adobe Illustrator 29.0.0, SVG Export Plug-In . SVG Version: 2.1.0 Build 186)  -->
  <defs>
    <style>
      .st0, .st1 {
        stroke: #e6007e;
        stroke-miterlimit: 10;
        stroke-width: .25px;
      }

      .st2 {
        display: none;
        opacity: .5;
      }

      .st1 {
        fill: none;
      }
    </style>
  </defs>
  <g id="_модульная_сетка_на_надпись__x28_1_x29_" data-name="модульная_сетка_на_надпись__x28_1_x29_" class="st2">
    <line class="st1" x1="279.7" y1="353.36" x2="475.82" y2="353.36"/>
    <line class="st1" x1="279.7" y1="377.79" x2="475.82" y2="377.79"/>
    <line class="st1" x1="279.66" y1="358.69" x2="475.77" y2="358.69"/>
    <line class="st1" x1="279.7" y1="360.37" x2="475.82" y2="360.37"/>
    <line class="st1" x1="279.67" y1="362.98" x2="475.78" y2="362.98"/>
    <line class="st1" x1="279.66" y1="368.27" x2="475.77" y2="368.27"/>
    <line class="st1" x1="279.66" y1="372.56" x2="475.71" y2="372.56"/>
    <line class="st1" x1="279.7" y1="370.8" x2="475.82" y2="370.8"/>
    <line class="st1" x1="283.92" y1="350.79" x2="283.92" y2="379.35"/>
    <line class="st1" x1="290.56" y1="350.79" x2="290.56" y2="379.35"/>
    <line class="st1" x1="309.8" y1="350.79" x2="309.8" y2="379.35"/>
    <line class="st1" x1="316.55" y1="350.79" x2="316.55" y2="379.35"/>
    <line class="st1" x1="299.05" y1="350.79" x2="299.05" y2="379.35"/>
    <line class="st1" x1="305.81" y1="350.79" x2="305.81" y2="379.35"/>
    <line class="st1" x1="336.09" y1="350.67" x2="336.09" y2="379.23"/>
    <line class="st1" x1="342.61" y1="350.67" x2="342.61" y2="379.23"/>
    <line class="st1" x1="351.08" y1="350.67" x2="351.08" y2="379.23"/>
    <line class="st1" x1="357.8" y1="350.67" x2="357.8" y2="379.23"/>
    <line class="st1" x1="362.2" y1="350.56" x2="362.2" y2="379.12"/>
    <line class="st1" x1="368.92" y1="350.56" x2="368.92" y2="379.12"/>
    <line class="st1" x1="373.24" y1="350.56" x2="373.24" y2="379.12"/>
    <line class="st1" x1="379.97" y1="350.56" x2="379.97" y2="379.12"/>
    <line class="st1" x1="388.97" y1="350.56" x2="388.97" y2="379.12"/>
    <line class="st1" x1="395.69" y1="350.56" x2="395.69" y2="379.12"/>
    <line class="st1" x1="399.68" y1="350.56" x2="399.68" y2="379.12"/>
    <line class="st1" x1="406.4" y1="350.56" x2="406.4" y2="379.12"/>
    <line class="st1" x1="423.45" y1="350.56" x2="423.45" y2="379.12"/>
    <line class="st1" x1="430.05" y1="350.56" x2="430.05" y2="379.12"/>
    <line class="st1" x1="438.56" y1="350.56" x2="438.56" y2="379.12"/>
    <line class="st1" x1="445.16" y1="350.56" x2="445.16" y2="379.12"/>
    <line class="st1" x1="449.45" y1="350.56" x2="449.45" y2="379.12"/>
    <line class="st1" x1="456.05" y1="350.56" x2="456.05" y2="379.12"/>
    <line class="st1" x1="464.56" y1="350.56" x2="464.56" y2="379.12"/>
    <line class="st1" x1="471.16" y1="350.56" x2="471.16" y2="379.12"/>
    <line class="st1" x1="325.44" y1="350.79" x2="325.44" y2="379.35"/>
    <line class="st1" x1="332.19" y1="350.79" x2="332.19" y2="379.35"/>
    <line class="st1" x1="378.5" y1="351.48" x2="396.57" y2="378.2"/>
    <line class="st1" x1="371.48" y1="351.77" x2="389.54" y2="378.48"/>
    <line class="st1" x1="306.42" y1="363.3" x2="301.05" y2="366.36"/>
    <line class="st1" x1="301" y1="364.7" x2="306.38" y2="367.76"/>
  </g>
  <g id="_модульная_сетка_надписи__x28_2_x29_" data-name="модульная_сетка_надписи__x28_2_x29_" class="st2">
    <line class="st0" x1="281.05" y1="392.49" x2="528.71" y2="392.49"/>
    <line class="st0" x1="281.05" y1="416.16" x2="528.61" y2="416.16"/>
    <line class="st0" x1="280.99" y1="397.66" x2="528.65" y2="397.66"/>
    <line class="st0" x1="281.05" y1="399.29" x2="528.65" y2="399.29"/>
    <line class="st0" x1="281.01" y1="401.83" x2="528.61" y2="401.83"/>
    <line class="st0" x1="281" y1="406.95" x2="528.56" y2="406.95"/>
    <line class="st0" x1="280.99" y1="411.11" x2="528.48" y2="411.11"/>
    <line class="st0" x1="281.05" y1="409.4" x2="528.61" y2="409.4"/>
    <line class="st0" x1="332.62" y1="390" x2="332.62" y2="417.69"/>
    <line class="st0" x1="338.56" y1="390" x2="338.56" y2="417.69"/>
    <line class="st0" x1="345.16" y1="390" x2="345.16" y2="417.69"/>
    <line class="st0" x1="311.42" y1="390" x2="311.42" y2="417.69"/>
    <line class="st0" x1="317.66" y1="390" x2="317.66" y2="417.69"/>
    <line class="st0" x1="298.93" y1="390" x2="298.93" y2="417.69"/>
    <line class="st0" x1="305.48" y1="390" x2="305.48" y2="417.69"/>
    <line class="st0" x1="283.93" y1="390" x2="283.93" y2="417.69"/>
    <line class="st0" x1="290.47" y1="390" x2="290.47" y2="417.69"/>
    <line class="st0" x1="326.37" y1="390" x2="326.37" y2="417.69"/>
    <line class="st0" x1="358.14" y1="390" x2="358.14" y2="417.69"/>
    <line class="st0" x1="361.42" y1="389.88" x2="361.42" y2="417.58"/>
    <line class="st0" x1="347.73" y1="390" x2="347.73" y2="417.69"/>
    <line class="st0" x1="354.71" y1="390" x2="354.71" y2="417.69"/>
    <line class="st0" x1="391.61" y1="390.78" x2="376.45" y2="413.96"/>
    <line class="st0" x1="385.7" y1="389.23" x2="374.37" y2="406.55"/>
    <line class="st0" x1="365.74" y1="391.13" x2="380.9" y2="414.31"/>
    <line class="st0" x1="371.66" y1="389.58" x2="382.99" y2="406.9"/>
    <line class="st0" x1="362.85" y1="390.78" x2="347.69" y2="413.96"/>
    <line class="st0" x1="357.09" y1="389.4" x2="345.76" y2="406.73"/>
    <line class="st0" x1="337.14" y1="391.13" x2="352.3" y2="414.31"/>
    <line class="st0" x1="343.06" y1="389.75" x2="354.39" y2="407.07"/>
    <line class="st0" x1="389.96" y1="389.88" x2="389.96" y2="417.58"/>
    <line class="st0" x1="395.84" y1="389.88" x2="395.84" y2="417.58"/>
    <line class="st0" x1="402.36" y1="389.88" x2="402.36" y2="417.58"/>
    <line class="st0" x1="410.93" y1="389.77" x2="410.93" y2="417.47"/>
    <line class="st0" x1="417.45" y1="389.77" x2="417.45" y2="417.47"/>
    <line class="st0" x1="423.34" y1="389.88" x2="423.34" y2="417.58"/>
    <line class="st0" x1="429.82" y1="390.05" x2="429.82" y2="417.75"/>
    <line class="st0" x1="438.56" y1="390.05" x2="438.56" y2="417.75"/>
    <line class="st0" x1="444.89" y1="390.05" x2="444.89" y2="417.75"/>
    <line class="st0" x1="450.85" y1="389.77" x2="450.85" y2="417.47"/>
    <line class="st0" x1="457.37" y1="389.77" x2="457.37" y2="417.47"/>
    <line class="st0" x1="466.03" y1="390.05" x2="466.03" y2="417.75"/>
    <line class="st0" x1="472.42" y1="390.05" x2="472.42" y2="417.75"/>
    <line class="st0" x1="478.43" y1="389.77" x2="478.43" y2="417.47"/>
    <line class="st0" x1="484.83" y1="389.77" x2="484.83" y2="417.47"/>
    <line class="st0" x1="493.85" y1="389.77" x2="493.85" y2="417.47"/>
    <line class="st0" x1="500.25" y1="389.77" x2="500.25" y2="417.47"/>
    <line class="st0" x1="506.26" y1="389.77" x2="506.26" y2="417.47"/>
    <line class="st0" x1="512.66" y1="389.77" x2="512.66" y2="417.47"/>
    <line class="st0" x1="520.7" y1="389.77" x2="520.7" y2="417.47"/>
    <line class="st0" x1="527.1" y1="389.77" x2="527.1" y2="417.47"/>
    <line class="st0" x1="367.2" y1="389.88" x2="367.2" y2="417.58"/>
    <line class="st0" x1="373.75" y1="389.88" x2="373.75" y2="417.58"/>
    <line class="st0" x1="428.41" y1="390.95" x2="445.92" y2="416.86"/>
    <line class="st0" x1="421.59" y1="391.22" x2="439.11" y2="417.14"/>
    <line class="st0" x1="475.69" y1="405.23" x2="466.59" y2="418.18"/>
    <line class="st0" x1="473.4" y1="398.21" x2="459.63" y2="417.82"/>
    <line class="st0" x1="459.97" y1="391.41" x2="473.59" y2="410.82"/>
    <line class="st0" x1="465.7" y1="389.3" x2="476.02" y2="404"/>
  </g>
  <g id="_модульная_сетка" data-name="модульная_сетка" class="st2">
    <line class="st1" x1="159.59" y1="300" x2="78.19" y2="346.68"/>
    <line class="st1" x1="160.73" y1="320.11" x2="79.33" y2="366.79"/>
    <line class="st1" x1="164.47" y1="351.13" x2="83.07" y2="397.82"/>
    <line class="st1" x1="242.13" y1="404.96" x2="160.73" y2="451.64"/>
    <line class="st1" x1="243.67" y1="425.09" x2="162.27" y2="471.77"/>
    <line class="st1" x1="82.35" y1="404.96" x2="163.75" y2="451.64"/>
    <line class="st1" x1="80.27" y1="424.67" x2="161.67" y2="471.35"/>
    <line class="st1" x1="165.99" y1="300.4" x2="247.39" y2="347.09"/>
    <line class="st1" x1="163.91" y1="320.11" x2="245.31" y2="366.79"/>
    <line class="st1" x1="160.73" y1="375.15" x2="114.07" y2="401.91"/>
    <line class="st1" x1="99.45" y1="380.24" x2="160.73" y2="415.39"/>
    <line class="st1" x1="111.93" y1="366.79" x2="160.73" y2="394.78"/>
    <line class="st1" x1="87.25" y1="330.37" x2="87.25" y2="438.42"/>
    <line class="st1" x1="156.09" y1="294.44" x2="156.09" y2="473.55"/>
    <line class="st1" x1="186.73" y1="294.44" x2="186.73" y2="473.55"/>
    <line class="st1" x1="105.22" y1="302.01" x2="105.22" y2="481.12"/>
    <line class="st1" x1="138.25" y1="301.93" x2="138.25" y2="481.04"/>
    <line class="st1" x1="237.17" y1="323.34" x2="237.17" y2="437.16"/>
    <line class="st1" x1="219.18" y1="322.43" x2="219.18" y2="449.35"/>
    <line class="st1" x1="168.61" y1="293.76" x2="168.61" y2="473.55"/>
    <line class="st1" x1="242.13" y1="377.77" x2="69.96" y2="377.77"/>
    <line class="st1" x1="242.13" y1="392.25" x2="69.96" y2="392.25"/>
  </g>
  <g id="_знак" data-name="знак">
    <polygon points="204.86 345.79 204.86 374.47 190.8 374.47 190.8 354.07 164.97 339.2 164.97 421.28 190.8 406.39 190.8 385.89 204.86 385.89 204.86 414.64 198.73 418.18 164.92 437.65 157.95 441.66 150.91 445.72 150.91 314.7 204.86 345.79"/>
    <path d="M140.9,314.7l-54.19,31.08v68.85s14.07,7.92,14.07,7.92l26.05,15.04,14.07,8.12v-59.84l-6.24-3.6-3.68-2.11,9.92-5.7v-59.76ZM126.83,421.31l-26.05-14.92v-20.51h11.95l14.1,8.12v27.31ZM126.83,365.4l-15.74,9.06h-10.32v-20.39l26.05-14.87v26.2Z"/>
  </g>
  <g id="_надпись" data-name="надпись">
    <g id="_надпись1" data-name="надпись">
      <g id="_командос" data-name="командос">
        <polygon points="350.73 385.87 350.73 414.61 342.88 414.61 342.86 398.87 338.3 405.57 337.69 406.47 335.91 406.47 335.59 406 330.74 398.87 330.72 414.61 322.87 414.61 322.87 385.87 330.74 385.87 336.1 393.82 337.5 393.82 342.86 385.87 350.73 385.87"/>
        <polygon points="318.23 385.87 318.23 414.61 310.37 414.61 310.36 398.88 305.8 405.58 305.14 406.47 303.4 406.47 303.09 406.01 298.24 398.88 298.22 414.61 290.37 414.61 290.37 385.87 298.24 385.87 303.6 393.83 305 393.83 310.36 385.87 318.23 385.87"/>
        <path d="M355.37,385.89v28.74h7.95v-11.28h10.57v11.28h7.95v-28.74h-26.47ZM373.89,397.28h-10.57v-4.98h10.57v4.98Z"/>
        <path d="M443.54,392.78l-.32-.47-1.71-2.4-2.83-3.96h-2.6l-18.53-.03v28.71l7.95-.02,5.65-.03h7.58l.03-.02,3.77-5.31.72-1.01.03-.03.76-1.08v-13.67l-.49-.69ZM436.08,406.11l-1.53,2.13h-9.05v-15.94h9.03l1.55,2.16v11.65Z"/>
        <path d="M258.88,385.87v28.74h26.65v-28.74h-26.65ZM277.68,408.21h-10.95v-15.95h10.95v15.95Z"/>
        <path d="M448.67,385.87v28.74h26.96v-28.74h-26.96ZM467.68,408.22h-11.06v-15.96h11.06v15.96Z"/>
        <polygon points="254.04 385.89 254.04 394.02 246.29 394.02 246.29 392.31 235.95 392.31 235.95 408.24 246.29 408.24 246.29 406.48 254.04 406.48 254.04 414.63 228.2 414.62 228.2 385.89 254.04 385.89"/>
        <polygon points="386.47 385.9 394.34 385.9 405.03 401.78 405.04 385.9 412.92 385.9 412.92 414.63 405.04 414.63 394.34 398.9 394.32 414.63 386.47 414.63 386.47 385.9"/>
      </g>
    </g>
    <g id="_бизнес" data-name="бизнес">
      <g>
        <polygon points="322.87 345.64 330.8 345.64 330.8 374.65 322.95 374.65 322.87 345.64"/>
        <polygon points="335.17 345.67 343.12 345.67 353.92 361.7 353.93 345.67 361.89 345.67 361.89 374.68 353.93 374.68 343.12 358.8 343.1 374.68 335.17 374.68 335.17 345.67"/>
        <polygon points="366.52 345.67 394.39 345.67 394.39 351.84 374.53 351.84 374.52 357.17 394.39 357.17 394.39 363.29 374.52 363.29 374.52 368.56 394.39 368.56 394.39 374.68 366.52 374.68 366.52 345.67"/>
        <polygon points="285.53 345.61 285.53 374.68 258.88 374.68 258.88 345.68 266.85 345.68 266.85 368.21 277.57 368.21 277.57 345.61 285.53 345.61"/>
        <polygon points="318.23 357.13 318.23 374.64 290.37 374.64 290.37 366.43 298.31 366.43 298.31 368.52 310.3 368.52 310.3 363.25 290.37 363.25 290.37 345.65 318.23 345.65 318.23 353.83 310.3 353.83 310.3 351.79 298.12 351.79 298.12 357.13 318.23 357.13"/>
        <polygon points="426.85 357.16 426.85 374.67 398.99 374.67 398.99 366.46 406.94 366.46 406.94 368.55 418.93 368.55 418.93 363.28 398.99 363.28 398.99 345.68 426.85 345.68 426.85 353.86 418.93 353.86 418.93 351.82 406.75 351.82 406.75 357.16 426.85 357.16"/>
        <polygon points="459.36 357.16 459.36 374.67 431.49 374.67 431.49 366.46 439.44 366.46 439.44 368.55 451.43 368.55 451.43 363.28 431.49 363.28 431.49 345.68 459.36 345.68 459.36 353.86 451.43 353.86 451.43 351.82 439.25 351.82 439.25 357.16 459.36 357.16"/>
        <polygon points="508.13 397.26 508.13 414.77 480.26 414.77 480.26 406.56 488.21 406.56 488.21 408.65 500.2 408.65 500.2 403.38 480.26 403.38 480.26 385.78 508.13 385.78 508.13 393.96 500.2 393.96 500.2 391.92 488.02 391.92 488.02 397.26 508.13 397.26"/>
      </g>
      <path d="M254.04,357.13h-.02v-11.49h-25.82v29.01h25.84v-12.2l-4.07-2.34,4.07-2.33v-.65ZM246.09,368.52h-9.93v-5.27h9.93v5.27ZM246.09,357.13h-10.11v-5.34h10.11v5.34Z"/>
    </g>
  </g>
</svg>