<?xml version="1.0" encoding="UTF-8"?>
<svg id="_Слой_1" data-name="Слой_1" xmlns="http://www.w3.org/2000/svg" version="1.1" viewBox="0 0 595.28 841.89">
  <!-- Generator: Adobe Illustrator 29.0.0, SVG Export Plug-In . SVG Version: 2.1.0 Build 186)  -->
  <defs>
    <style>
      .st0, .st1 {
        stroke: #e6007e;
        stroke-miterlimit: 10;
        stroke-width: .25px;
      }

      .st2 {
        display: none;
        opacity: .5;
      }

      .st1 {
        fill: none;
      }
    </style>
  </defs>
  <g id="_модульная_сетка_на_надпись__x28_1_x29_" data-name="модульная_сетка_на_надпись__x28_1_x29_" class="st2">
    <line class="st1" x1="279.7" y1="353.36" x2="475.82" y2="353.36"/>
    <line class="st1" x1="279.7" y1="377.79" x2="475.82" y2="377.79"/>
    <line class="st1" x1="279.66" y1="358.69" x2="475.77" y2="358.69"/>
    <line class="st1" x1="279.7" y1="360.37" x2="475.82" y2="360.37"/>
    <line class="st1" x1="279.67" y1="362.98" x2="475.78" y2="362.98"/>
    <line class="st1" x1="279.66" y1="368.27" x2="475.77" y2="368.27"/>
    <line class="st1" x1="279.66" y1="372.56" x2="475.71" y2="372.56"/>
    <line class="st1" x1="279.7" y1="370.8" x2="475.82" y2="370.8"/>
    <line class="st1" x1="283.92" y1="350.79" x2="283.92" y2="379.35"/>
    <line class="st1" x1="290.56" y1="350.79" x2="290.56" y2="379.35"/>
    <line class="st1" x1="309.8" y1="350.79" x2="309.8" y2="379.35"/>
    <line class="st1" x1="316.55" y1="350.79" x2="316.55" y2="379.35"/>
    <line class="st1" x1="299.05" y1="350.79" x2="299.05" y2="379.35"/>
    <line class="st1" x1="305.81" y1="350.79" x2="305.81" y2="379.35"/>
    <line class="st1" x1="336.09" y1="350.67" x2="336.09" y2="379.23"/>
    <line class="st1" x1="342.61" y1="350.67" x2="342.61" y2="379.23"/>
    <line class="st1" x1="351.08" y1="350.67" x2="351.08" y2="379.23"/>
    <line class="st1" x1="357.8" y1="350.67" x2="357.8" y2="379.23"/>
    <line class="st1" x1="362.2" y1="350.56" x2="362.2" y2="379.12"/>
    <line class="st1" x1="368.92" y1="350.56" x2="368.92" y2="379.12"/>
    <line class="st1" x1="373.24" y1="350.56" x2="373.24" y2="379.12"/>
    <line class="st1" x1="379.97" y1="350.56" x2="379.97" y2="379.12"/>
    <line class="st1" x1="388.97" y1="350.56" x2="388.97" y2="379.12"/>
    <line class="st1" x1="395.69" y1="350.56" x2="395.69" y2="379.12"/>
    <line class="st1" x1="399.68" y1="350.56" x2="399.68" y2="379.12"/>
    <line class="st1" x1="406.4" y1="350.56" x2="406.4" y2="379.12"/>
    <line class="st1" x1="423.45" y1="350.56" x2="423.45" y2="379.12"/>
    <line class="st1" x1="430.05" y1="350.56" x2="430.05" y2="379.12"/>
    <line class="st1" x1="438.56" y1="350.56" x2="438.56" y2="379.12"/>
    <line class="st1" x1="445.16" y1="350.56" x2="445.16" y2="379.12"/>
    <line class="st1" x1="449.45" y1="350.56" x2="449.45" y2="379.12"/>
    <line class="st1" x1="456.05" y1="350.56" x2="456.05" y2="379.12"/>
    <line class="st1" x1="464.56" y1="350.56" x2="464.56" y2="379.12"/>
    <line class="st1" x1="471.16" y1="350.56" x2="471.16" y2="379.12"/>
    <line class="st1" x1="325.44" y1="350.79" x2="325.44" y2="379.35"/>
    <line class="st1" x1="332.19" y1="350.79" x2="332.19" y2="379.35"/>
    <line class="st1" x1="378.5" y1="351.48" x2="396.57" y2="378.2"/>
    <line class="st1" x1="371.48" y1="351.77" x2="389.54" y2="378.48"/>
    <line class="st1" x1="306.42" y1="363.3" x2="301.05" y2="366.36"/>
    <line class="st1" x1="301" y1="364.7" x2="306.38" y2="367.76"/>
  </g>
  <g id="_модульная_сетка_надписи__x28_2_x29_" data-name="модульная_сетка_надписи__x28_2_x29_" class="st2">
    <line class="st0" x1="281.05" y1="392.49" x2="528.71" y2="392.49"/>
    <line class="st0" x1="281.05" y1="416.16" x2="528.61" y2="416.16"/>
    <line class="st0" x1="280.99" y1="397.66" x2="528.65" y2="397.66"/>
    <line class="st0" x1="281.05" y1="399.29" x2="528.65" y2="399.29"/>
    <line class="st0" x1="281.01" y1="401.83" x2="528.61" y2="401.83"/>
    <line class="st0" x1="281" y1="406.95" x2="528.56" y2="406.95"/>
    <line class="st0" x1="280.99" y1="411.11" x2="528.48" y2="411.11"/>
    <line class="st0" x1="281.05" y1="409.4" x2="528.61" y2="409.4"/>
    <line class="st0" x1="332.62" y1="390" x2="332.62" y2="417.69"/>
    <line class="st0" x1="338.56" y1="390" x2="338.56" y2="417.69"/>
    <line class="st0" x1="345.16" y1="390" x2="345.16" y2="417.69"/>
    <line class="st0" x1="311.42" y1="390" x2="311.42" y2="417.69"/>
    <line class="st0" x1="317.66" y1="390" x2="317.66" y2="417.69"/>
    <line class="st0" x1="298.93" y1="390" x2="298.93" y2="417.69"/>
    <line class="st0" x1="305.48" y1="390" x2="305.48" y2="417.69"/>
    <line class="st0" x1="283.93" y1="390" x2="283.93" y2="417.69"/>
    <line class="st0" x1="290.47" y1="390" x2="290.47" y2="417.69"/>
    <line class="st0" x1="326.37" y1="390" x2="326.37" y2="417.69"/>
    <line class="st0" x1="358.14" y1="390" x2="358.14" y2="417.69"/>
    <line class="st0" x1="361.42" y1="389.88" x2="361.42" y2="417.58"/>
    <line class="st0" x1="347.73" y1="390" x2="347.73" y2="417.69"/>
    <line class="st0" x1="354.71" y1="390" x2="354.71" y2="417.69"/>
    <line class="st0" x1="391.61" y1="390.78" x2="376.45" y2="413.96"/>
    <line class="st0" x1="385.7" y1="389.23" x2="374.37" y2="406.55"/>
    <line class="st0" x1="365.74" y1="391.13" x2="380.9" y2="414.31"/>
    <line class="st0" x1="371.66" y1="389.58" x2="382.99" y2="406.9"/>
    <line class="st0" x1="362.85" y1="390.78" x2="347.69" y2="413.96"/>
    <line class="st0" x1="357.09" y1="389.4" x2="345.76" y2="406.73"/>
    <line class="st0" x1="337.14" y1="391.13" x2="352.3" y2="414.31"/>
    <line class="st0" x1="343.06" y1="389.75" x2="354.39" y2="407.07"/>
    <line class="st0" x1="389.96" y1="389.88" x2="389.96" y2="417.58"/>
    <line class="st0" x1="395.84" y1="389.88" x2="395.84" y2="417.58"/>
    <line class="st0" x1="402.36" y1="389.88" x2="402.36" y2="417.58"/>
    <line class="st0" x1="410.93" y1="389.77" x2="410.93" y2="417.47"/>
    <line class="st0" x1="417.45" y1="389.77" x2="417.45" y2="417.47"/>
    <line class="st0" x1="423.34" y1="389.88" x2="423.34" y2="417.58"/>
    <line class="st0" x1="429.82" y1="390.05" x2="429.82" y2="417.75"/>
    <line class="st0" x1="438.56" y1="390.05" x2="438.56" y2="417.75"/>
    <line class="st0" x1="444.89" y1="390.05" x2="444.89" y2="417.75"/>
    <line class="st0" x1="450.85" y1="389.77" x2="450.85" y2="417.47"/>
    <line class="st0" x1="457.37" y1="389.77" x2="457.37" y2="417.47"/>
    <line class="st0" x1="466.03" y1="390.05" x2="466.03" y2="417.75"/>
    <line class="st0" x1="472.42" y1="390.05" x2="472.42" y2="417.75"/>
    <line class="st0" x1="478.43" y1="389.77" x2="478.43" y2="417.47"/>
    <line class="st0" x1="484.83" y1="389.77" x2="484.83" y2="417.47"/>
    <line class="st0" x1="493.85" y1="389.77" x2="493.85" y2="417.47"/>
    <line class="st0" x1="500.25" y1="389.77" x2="500.25" y2="417.47"/>
    <line class="st0" x1="506.26" y1="389.77" x2="506.26" y2="417.47"/>
    <line class="st0" x1="512.66" y1="389.77" x2="512.66" y2="417.47"/>
    <line class="st0" x1="520.7" y1="389.77" x2="520.7" y2="417.47"/>
    <line class="st0" x1="527.1" y1="389.77" x2="527.1" y2="417.47"/>
    <line class="st0" x1="367.2" y1="389.88" x2="367.2" y2="417.58"/>
    <line class="st0" x1="373.75" y1="389.88" x2="373.75" y2="417.58"/>
    <line class="st0" x1="428.41" y1="390.95" x2="445.92" y2="416.86"/>
    <line class="st0" x1="421.59" y1="391.22" x2="439.11" y2="417.14"/>
    <line class="st0" x1="475.69" y1="405.23" x2="466.59" y2="418.18"/>
    <line class="st0" x1="473.4" y1="398.21" x2="459.63" y2="417.82"/>
    <line class="st0" x1="459.97" y1="391.41" x2="473.59" y2="410.82"/>
    <line class="st0" x1="465.7" y1="389.3" x2="476.02" y2="404"/>
  </g>
  <g id="_модульная_сетка" data-name="модульная_сетка" class="st2">
    <line class="st1" x1="159.59" y1="300" x2="78.19" y2="346.68"/>
    <line class="st1" x1="160.73" y1="320.11" x2="79.33" y2="366.79"/>
    <line class="st1" x1="164.47" y1="351.13" x2="83.07" y2="397.82"/>
    <line class="st1" x1="242.13" y1="404.96" x2="160.73" y2="451.64"/>
    <line class="st1" x1="243.67" y1="425.09" x2="162.27" y2="471.77"/>
    <line class="st1" x1="82.35" y1="404.96" x2="163.75" y2="451.64"/>
    <line class="st1" x1="80.27" y1="424.67" x2="161.67" y2="471.35"/>
    <line class="st1" x1="165.99" y1="300.4" x2="247.39" y2="347.09"/>
    <line class="st1" x1="163.91" y1="320.11" x2="245.31" y2="366.79"/>
    <line class="st1" x1="160.73" y1="375.15" x2="114.07" y2="401.91"/>
    <line class="st1" x1="99.45" y1="380.24" x2="160.73" y2="415.39"/>
    <line class="st1" x1="111.93" y1="366.79" x2="160.73" y2="394.78"/>
    <line class="st1" x1="87.25" y1="330.37" x2="87.25" y2="438.42"/>
    <line class="st1" x1="156.09" y1="294.44" x2="156.09" y2="473.55"/>
    <line class="st1" x1="186.73" y1="294.44" x2="186.73" y2="473.55"/>
    <line class="st1" x1="105.22" y1="302.01" x2="105.22" y2="481.12"/>
    <line class="st1" x1="138.25" y1="301.93" x2="138.25" y2="481.04"/>
    <line class="st1" x1="237.17" y1="323.34" x2="237.17" y2="437.16"/>
    <line class="st1" x1="219.18" y1="322.43" x2="219.18" y2="449.35"/>
    <line class="st1" x1="168.61" y1="293.76" x2="168.61" y2="473.55"/>
    <line class="st1" x1="242.13" y1="377.77" x2="69.96" y2="377.77"/>
    <line class="st1" x1="242.13" y1="392.25" x2="69.96" y2="392.25"/>
  </g>
  <g id="_знак" data-name="знак">
    <polygon points="206.25 351.48 206.25 380.16 192.18 380.16 192.18 359.76 166.36 344.89 166.36 426.97 192.18 412.08 192.18 391.58 206.25 391.58 206.25 420.33 200.11 423.87 166.31 443.34 159.34 447.35 152.29 451.41 152.29 320.39 206.25 351.48"/>
    <path d="M142.29,320.39l-54.19,31.08v68.85s14.07,7.92,14.07,7.92l26.05,15.04,14.07,8.12v-59.84l-6.24-3.6-3.68-2.11,9.92-5.7v-59.76ZM128.21,427l-26.05-14.92v-20.51h11.95l14.1,8.12v27.31ZM128.21,371.09l-15.74,9.06h-10.32v-20.39l26.05-14.87v26.2Z"/>
  </g>
  <g id="_надпись" data-name="надпись">
    <g id="_надпись1" data-name="надпись">
      <g id="_командос" data-name="командос">
        <polygon points="355.67 391.56 355.67 420.3 347.82 420.3 347.8 404.56 343.24 411.26 342.63 412.16 340.85 412.16 340.53 411.69 335.68 404.56 335.66 420.3 327.81 420.3 327.81 391.56 335.68 391.56 341.04 399.51 342.44 399.51 347.8 391.56 355.67 391.56"/>
        <polygon points="323.17 391.56 323.17 420.3 315.31 420.3 315.3 404.57 310.74 411.27 310.08 412.16 308.34 412.16 308.03 411.7 303.18 404.57 303.16 420.3 295.31 420.3 295.31 391.56 303.18 391.56 308.54 399.52 309.94 399.52 315.3 391.56 323.17 391.56"/>
        <path d="M360.31,391.58v28.74h7.95v-11.28h10.57v11.28h7.95v-28.74h-26.47ZM378.83,402.97h-10.57v-4.98h10.57v4.98Z"/>
        <path d="M448.48,398.47l-.32-.47-1.71-2.4-2.83-3.96h-2.6l-18.53-.03v28.71l7.95-.02,5.65-.03h7.58l.03-.02,3.77-5.31.72-1.01.03-.03.76-1.08v-13.67l-.49-.69ZM441.02,411.8l-1.53,2.13h-9.05v-15.94h9.03l1.55,2.16v11.65Z"/>
        <path d="M263.82,391.56v28.74h26.65v-28.74h-26.65ZM282.62,413.9h-10.95v-15.95h10.95v15.95Z"/>
        <path d="M453.61,391.56v28.74h26.96v-28.74h-26.96ZM472.62,413.91h-11.06v-15.96h11.06v15.96Z"/>
        <polygon points="258.98 391.58 258.98 399.71 251.23 399.71 251.23 398 240.89 398 240.89 413.93 251.23 413.93 251.23 412.17 258.98 412.17 258.98 420.32 233.14 420.31 233.14 391.58 258.98 391.58"/>
        <polygon points="391.41 391.59 399.28 391.59 409.97 407.47 409.98 391.59 417.86 391.59 417.86 420.32 409.98 420.32 399.28 404.59 399.26 420.32 391.41 420.32 391.41 391.59"/>
      </g>
    </g>
    <g id="_бизнес" data-name="бизнес">
      <g>
        <polygon points="327.81 351.33 335.74 351.33 335.74 380.34 327.89 380.34 327.81 351.33"/>
        <polygon points="340.11 351.36 348.06 351.36 358.86 367.39 358.87 351.36 366.83 351.36 366.83 380.37 358.87 380.37 348.06 364.49 348.04 380.37 340.11 380.37 340.11 351.36"/>
        <polygon points="371.46 351.36 399.33 351.36 399.33 357.53 379.47 357.53 379.46 362.86 399.33 362.86 399.33 368.98 379.46 368.98 379.46 374.25 399.33 374.25 399.33 380.37 371.46 380.37 371.46 351.36"/>
        <polygon points="290.47 351.3 290.47 380.37 263.82 380.37 263.82 351.37 271.79 351.37 271.79 373.9 282.51 373.9 282.51 351.3 290.47 351.3"/>
        <polygon points="323.17 362.82 323.17 380.33 295.31 380.33 295.31 372.12 303.25 372.12 303.25 374.21 315.24 374.21 315.24 368.94 295.31 368.94 295.31 351.34 323.17 351.34 323.17 359.52 315.24 359.52 315.24 357.48 303.06 357.48 303.06 362.82 323.17 362.82"/>
        <polygon points="431.8 362.85 431.8 380.36 403.93 380.36 403.93 372.15 411.88 372.15 411.88 374.24 423.87 374.24 423.87 368.97 403.93 368.97 403.93 351.37 431.8 351.37 431.8 359.55 423.87 359.55 423.87 357.51 411.69 357.51 411.69 362.85 431.8 362.85"/>
        <polygon points="464.3 362.85 464.3 380.36 436.43 380.36 436.43 372.15 444.38 372.15 444.38 374.24 456.37 374.24 456.37 368.97 436.43 368.97 436.43 351.37 464.3 351.37 464.3 359.55 456.37 359.55 456.37 357.51 444.19 357.51 444.19 362.85 464.3 362.85"/>
        <polygon points="513.07 402.95 513.07 420.46 485.2 420.46 485.2 412.25 493.15 412.25 493.15 414.34 505.14 414.34 505.14 409.07 485.2 409.07 485.2 391.47 513.07 391.47 513.07 399.65 505.14 399.65 505.14 397.61 492.96 397.61 492.96 402.95 513.07 402.95"/>
      </g>
      <path d="M258.98,362.82h-.02v-11.49h-25.82v29.01h25.84v-12.2l-4.07-2.34,4.07-2.33v-.65ZM251.03,374.21h-9.93v-5.27h9.93v5.27ZM251.03,362.82h-10.11v-5.34h10.11v5.34Z"/>
    </g>
  </g>
</svg>