<?xml version="1.0" encoding="UTF-8"?>
<svg id="_Слой_1" data-name="Слой_1" xmlns="http://www.w3.org/2000/svg" version="1.1" viewBox="0 0 595.28 841.89">
  <!-- Generator: Adobe Illustrator 29.0.0, SVG Export Plug-In . SVG Version: 2.1.0 Build 186)  -->
  <defs>
    <style>
      .st0, .st1 {
        stroke: #e6007e;
        stroke-miterlimit: 10;
        stroke-width: .25px;
      }

      .st2 {
        display: none;
        opacity: .5;
      }

      .st1 {
        fill: none;
      }
    </style>
  </defs>
  <g id="_бизнес" data-name="бизнес">
    <g>
      <polygon points="362.23 353.41 368.89 353.41 368.89 377.79 362.3 377.79 362.23 353.41"/>
      <polygon points="373.24 353.41 379.92 353.41 389 366.89 389 353.41 395.69 353.41 395.69 377.79 389 377.79 379.92 364.44 379.9 377.79 373.24 377.79 373.24 353.41"/>
      <polygon points="399.68 353.41 419.46 353.41 419.46 358.6 406.41 358.6 406.4 363.08 419.46 363.08 419.46 368.22 406.4 368.22 406.4 372.64 419.46 372.64 419.46 377.79 399.68 377.79 399.68 353.41"/>
      <polygon points="332.19 353.36 332.19 377.79 309.8 377.79 309.8 353.42 316.5 353.42 316.5 372.35 325.5 372.35 325.5 353.36 332.19 353.36"/>
      <polygon points="445.16 363.08 445.16 377.79 423.45 377.79 423.45 370.89 430.13 370.89 430.13 372.64 438.48 372.64 438.48 368.22 423.45 368.22 423.45 353.41 445.14 353.41 445.14 360.3 438.48 360.3 438.48 358.59 429.97 358.59 429.97 363.08 445.16 363.08"/>
      <polygon points="357.8 363.06 357.8 377.78 336.09 377.78 336.09 370.88 342.77 370.88 342.77 372.63 351.12 372.63 351.12 368.21 336.09 368.21 336.09 353.41 357.78 353.41 357.78 360.29 351.12 360.29 351.12 358.58 342.61 358.58 342.61 363.06 357.8 363.06"/>
      <polygon points="471.16 363.08 471.16 377.79 449.45 377.79 449.45 370.9 456.13 370.9 456.13 372.65 464.48 372.65 464.48 368.22 449.45 368.22 449.45 353.42 471.14 353.43 471.14 360.31 464.48 360.31 464.48 358.59 455.97 358.59 455.97 363.08 471.16 363.08"/>
    </g>
    <path d="M305.73,363.04h-.02v-9.66h-21.7v24.38h21.71v-10.25l-3.42-1.97,3.42-1.95v-.54ZM299.05,372.62h-8.34v-4.43h8.34v4.43ZM299.05,363.04h-8.5v-4.49h8.5v4.49Z"/>
  </g>
  <g id="_модульная_сетка_на_надпись__x28_1_x29_" data-name="модульная_сетка_на_надпись__x28_1_x29_" class="st2">
    <line class="st1" x1="279.7" y1="353.36" x2="475.82" y2="353.36"/>
    <line class="st1" x1="279.7" y1="377.79" x2="475.82" y2="377.79"/>
    <line class="st1" x1="279.66" y1="358.69" x2="475.77" y2="358.69"/>
    <line class="st1" x1="279.7" y1="360.37" x2="475.82" y2="360.37"/>
    <line class="st1" x1="279.67" y1="362.98" x2="475.78" y2="362.98"/>
    <line class="st1" x1="279.66" y1="368.27" x2="475.77" y2="368.27"/>
    <line class="st1" x1="279.66" y1="372.56" x2="475.71" y2="372.56"/>
    <line class="st1" x1="279.7" y1="370.8" x2="475.82" y2="370.8"/>
    <line class="st1" x1="283.92" y1="350.79" x2="283.92" y2="379.35"/>
    <line class="st1" x1="290.56" y1="350.79" x2="290.56" y2="379.35"/>
    <line class="st1" x1="309.8" y1="350.79" x2="309.8" y2="379.35"/>
    <line class="st1" x1="316.55" y1="350.79" x2="316.55" y2="379.35"/>
    <line class="st1" x1="299.05" y1="350.79" x2="299.05" y2="379.35"/>
    <line class="st1" x1="305.81" y1="350.79" x2="305.81" y2="379.35"/>
    <line class="st1" x1="336.09" y1="350.67" x2="336.09" y2="379.23"/>
    <line class="st1" x1="342.61" y1="350.67" x2="342.61" y2="379.23"/>
    <line class="st1" x1="351.08" y1="350.67" x2="351.08" y2="379.23"/>
    <line class="st1" x1="357.8" y1="350.67" x2="357.8" y2="379.23"/>
    <line class="st1" x1="362.2" y1="350.56" x2="362.2" y2="379.12"/>
    <line class="st1" x1="368.92" y1="350.56" x2="368.92" y2="379.12"/>
    <line class="st1" x1="373.24" y1="350.56" x2="373.24" y2="379.12"/>
    <line class="st1" x1="379.97" y1="350.56" x2="379.97" y2="379.12"/>
    <line class="st1" x1="388.97" y1="350.56" x2="388.97" y2="379.12"/>
    <line class="st1" x1="395.69" y1="350.56" x2="395.69" y2="379.12"/>
    <line class="st1" x1="399.68" y1="350.56" x2="399.68" y2="379.12"/>
    <line class="st1" x1="406.4" y1="350.56" x2="406.4" y2="379.12"/>
    <line class="st1" x1="423.45" y1="350.56" x2="423.45" y2="379.12"/>
    <line class="st1" x1="430.05" y1="350.56" x2="430.05" y2="379.12"/>
    <line class="st1" x1="438.56" y1="350.56" x2="438.56" y2="379.12"/>
    <line class="st1" x1="445.16" y1="350.56" x2="445.16" y2="379.12"/>
    <line class="st1" x1="449.45" y1="350.56" x2="449.45" y2="379.12"/>
    <line class="st1" x1="456.05" y1="350.56" x2="456.05" y2="379.12"/>
    <line class="st1" x1="464.56" y1="350.56" x2="464.56" y2="379.12"/>
    <line class="st1" x1="471.16" y1="350.56" x2="471.16" y2="379.12"/>
    <line class="st1" x1="325.44" y1="350.79" x2="325.44" y2="379.35"/>
    <line class="st1" x1="332.19" y1="350.79" x2="332.19" y2="379.35"/>
    <line class="st1" x1="378.5" y1="351.48" x2="396.57" y2="378.2"/>
    <line class="st1" x1="371.48" y1="351.77" x2="389.54" y2="378.48"/>
    <line class="st1" x1="306.42" y1="363.3" x2="301.05" y2="366.36"/>
    <line class="st1" x1="301" y1="364.7" x2="306.38" y2="367.76"/>
  </g>
  <g id="_командос" data-name="командос">
    <polygon points="389.9 392.66 389.9 416.07 383.5 416.07 383.49 403.25 379.77 408.71 379.28 409.45 377.83 409.45 377.56 409.06 373.62 403.25 373.6 416.07 367.2 416.07 367.2 392.66 373.62 392.66 377.98 399.14 379.12 399.14 383.49 392.66 389.9 392.66"/>
    <polygon points="361.26 392.66 361.26 416.08 354.86 416.08 354.85 403.26 351.13 408.72 350.59 409.45 349.18 409.45 348.92 409.07 344.98 403.26 344.96 416.08 338.56 416.08 338.56 392.66 344.98 392.66 349.34 399.14 350.48 399.14 354.85 392.66 361.26 392.66"/>
    <path d="M395.84,392.66v23.41h6.48v-9.19h8.61v9.19h6.48v-23.41h-21.57ZM410.93,401.94h-8.61v-4.06h8.61v4.06Z"/>
    <path d="M472,398.26l-.26-.39-1.39-1.95-2.3-3.23h-2.12l-15.1-.02v23.39l6.48-.02,4.61-.02h6.17l.02-.02,3.07-4.33.58-.83.02-.02.62-.88v-11.13l-.4-.56ZM465.92,409.13l-1.25,1.73h-7.37v-12.98h7.36l1.26,1.76v9.49Z"/>
    <path d="M311.42,392.67v23.41h21.2v-23.41h-21.2ZM326.37,410.87h-8.71v-13h8.71v13Z"/>
    <path d="M478.33,392.67v23.41h21.97v-23.41h-21.97ZM493.82,410.88h-9.01v-13.01h9.01v13.01Z"/>
    <polygon points="305.48 392.66 305.48 399.28 299.01 399.28 299.01 397.89 290.39 397.89 290.39 410.87 299.01 410.87 299.01 409.44 305.48 409.44 305.48 416.08 283.93 416.07 283.93 392.66 305.48 392.66"/>
    <polygon points="423.34 392.67 429.75 392.67 438.46 405.6 438.47 392.67 444.89 392.67 444.89 416.07 438.47 416.07 429.75 403.26 429.73 416.07 423.34 416.07 423.34 392.67"/>
    <polygon points="527.07 401.94 527.07 416.07 506.23 416.07 506.23 409.45 512.64 409.45 512.64 411.13 520.66 411.13 520.66 406.88 506.23 406.88 506.23 392.66 527.05 392.66 527.05 399.28 520.66 399.28 520.66 397.64 512.49 397.64 512.49 401.94 527.07 401.94"/>
  </g>
  <g id="_модульная_сетка_надписи__x28_2_x29_" data-name="модульная_сетка_надписи__x28_2_x29_" class="st2">
    <line class="st0" x1="281.05" y1="392.49" x2="528.71" y2="392.49"/>
    <line class="st0" x1="281.05" y1="416.16" x2="528.61" y2="416.16"/>
    <line class="st0" x1="280.99" y1="397.66" x2="528.65" y2="397.66"/>
    <line class="st0" x1="281.05" y1="399.29" x2="528.65" y2="399.29"/>
    <line class="st0" x1="281.01" y1="401.83" x2="528.61" y2="401.83"/>
    <line class="st0" x1="281" y1="406.95" x2="528.56" y2="406.95"/>
    <line class="st0" x1="280.99" y1="411.11" x2="528.48" y2="411.11"/>
    <line class="st0" x1="281.05" y1="409.4" x2="528.61" y2="409.4"/>
    <line class="st0" x1="332.62" y1="390" x2="332.62" y2="417.69"/>
    <line class="st0" x1="338.56" y1="390" x2="338.56" y2="417.69"/>
    <line class="st0" x1="345.16" y1="390" x2="345.16" y2="417.69"/>
    <line class="st0" x1="311.42" y1="390" x2="311.42" y2="417.69"/>
    <line class="st0" x1="317.66" y1="390" x2="317.66" y2="417.69"/>
    <line class="st0" x1="298.93" y1="390" x2="298.93" y2="417.69"/>
    <line class="st0" x1="305.48" y1="390" x2="305.48" y2="417.69"/>
    <line class="st0" x1="283.93" y1="390" x2="283.93" y2="417.69"/>
    <line class="st0" x1="290.47" y1="390" x2="290.47" y2="417.69"/>
    <line class="st0" x1="326.37" y1="390" x2="326.37" y2="417.69"/>
    <line class="st0" x1="358.14" y1="390" x2="358.14" y2="417.69"/>
    <line class="st0" x1="361.42" y1="389.88" x2="361.42" y2="417.58"/>
    <line class="st0" x1="347.73" y1="390" x2="347.73" y2="417.69"/>
    <line class="st0" x1="354.71" y1="390" x2="354.71" y2="417.69"/>
    <line class="st0" x1="391.61" y1="390.78" x2="376.45" y2="413.96"/>
    <line class="st0" x1="385.7" y1="389.23" x2="374.37" y2="406.55"/>
    <line class="st0" x1="365.74" y1="391.13" x2="380.9" y2="414.31"/>
    <line class="st0" x1="371.66" y1="389.58" x2="382.99" y2="406.9"/>
    <line class="st0" x1="362.85" y1="390.78" x2="347.69" y2="413.96"/>
    <line class="st0" x1="357.09" y1="389.4" x2="345.76" y2="406.73"/>
    <line class="st0" x1="337.14" y1="391.13" x2="352.3" y2="414.31"/>
    <line class="st0" x1="343.06" y1="389.75" x2="354.39" y2="407.07"/>
    <line class="st0" x1="389.96" y1="389.88" x2="389.96" y2="417.58"/>
    <line class="st0" x1="395.84" y1="389.88" x2="395.84" y2="417.58"/>
    <line class="st0" x1="402.36" y1="389.88" x2="402.36" y2="417.58"/>
    <line class="st0" x1="410.93" y1="389.77" x2="410.93" y2="417.47"/>
    <line class="st0" x1="417.45" y1="389.77" x2="417.45" y2="417.47"/>
    <line class="st0" x1="423.34" y1="389.88" x2="423.34" y2="417.58"/>
    <line class="st0" x1="429.82" y1="390.05" x2="429.82" y2="417.75"/>
    <line class="st0" x1="438.56" y1="390.05" x2="438.56" y2="417.75"/>
    <line class="st0" x1="444.89" y1="390.05" x2="444.89" y2="417.75"/>
    <line class="st0" x1="450.85" y1="389.77" x2="450.85" y2="417.47"/>
    <line class="st0" x1="457.37" y1="389.77" x2="457.37" y2="417.47"/>
    <line class="st0" x1="466.03" y1="390.05" x2="466.03" y2="417.75"/>
    <line class="st0" x1="472.42" y1="390.05" x2="472.42" y2="417.75"/>
    <line class="st0" x1="478.43" y1="389.77" x2="478.43" y2="417.47"/>
    <line class="st0" x1="484.83" y1="389.77" x2="484.83" y2="417.47"/>
    <line class="st0" x1="493.85" y1="389.77" x2="493.85" y2="417.47"/>
    <line class="st0" x1="500.25" y1="389.77" x2="500.25" y2="417.47"/>
    <line class="st0" x1="506.26" y1="389.77" x2="506.26" y2="417.47"/>
    <line class="st0" x1="512.66" y1="389.77" x2="512.66" y2="417.47"/>
    <line class="st0" x1="520.7" y1="389.77" x2="520.7" y2="417.47"/>
    <line class="st0" x1="527.1" y1="389.77" x2="527.1" y2="417.47"/>
    <line class="st0" x1="367.2" y1="389.88" x2="367.2" y2="417.58"/>
    <line class="st0" x1="373.75" y1="389.88" x2="373.75" y2="417.58"/>
    <line class="st0" x1="428.41" y1="390.95" x2="445.92" y2="416.86"/>
    <line class="st0" x1="421.59" y1="391.22" x2="439.11" y2="417.14"/>
    <line class="st0" x1="475.69" y1="405.23" x2="466.59" y2="418.18"/>
    <line class="st0" x1="473.4" y1="398.21" x2="459.63" y2="417.82"/>
    <line class="st0" x1="459.97" y1="391.41" x2="473.59" y2="410.82"/>
    <line class="st0" x1="465.7" y1="389.3" x2="476.02" y2="404"/>
  </g>
  <g>
    <polygon points="237.17 341.41 237.17 377.77 219.34 377.77 219.34 351.92 186.61 333.06 186.61 437.12 219.34 418.25 219.34 392.25 237.17 392.25 237.17 428.7 229.39 433.19 186.54 457.87 177.71 462.96 168.77 468.1 168.77 302.01 237.17 341.41"/>
    <path d="M156.09,302.01l-68.7,39.41v87.29s17.83,10.19,17.83,10.19l33.03,18.92,17.84,10.3v-75.86l-7.91-4.56-4.66-2.68,12.57-7.23v-75.77ZM138.25,437.16l-33.03-18.91v-26h15.15l17.88,10.3v34.62ZM138.25,366.28l-19.95,11.49h-13.08v-25.85l33.03-18.86v33.22Z"/>
  </g>
  <g id="_модульная_сетка" data-name="модульная_сетка" class="st2">
    <line class="st1" x1="159.59" y1="300" x2="78.19" y2="346.68"/>
    <line class="st1" x1="160.73" y1="320.11" x2="79.33" y2="366.79"/>
    <line class="st1" x1="164.47" y1="351.13" x2="83.07" y2="397.82"/>
    <line class="st1" x1="242.13" y1="404.96" x2="160.73" y2="451.64"/>
    <line class="st1" x1="243.67" y1="425.09" x2="162.27" y2="471.77"/>
    <line class="st1" x1="82.35" y1="404.96" x2="163.75" y2="451.64"/>
    <line class="st1" x1="80.27" y1="424.67" x2="161.67" y2="471.35"/>
    <line class="st1" x1="165.99" y1="300.4" x2="247.39" y2="347.09"/>
    <line class="st1" x1="163.91" y1="320.11" x2="245.31" y2="366.79"/>
    <line class="st1" x1="160.73" y1="375.15" x2="114.07" y2="401.91"/>
    <line class="st1" x1="99.45" y1="380.24" x2="160.73" y2="415.39"/>
    <line class="st1" x1="111.93" y1="366.79" x2="160.73" y2="394.78"/>
    <line class="st1" x1="87.25" y1="330.37" x2="87.25" y2="438.42"/>
    <line class="st1" x1="156.09" y1="294.44" x2="156.09" y2="473.55"/>
    <line class="st1" x1="186.73" y1="294.44" x2="186.73" y2="473.55"/>
    <line class="st1" x1="105.22" y1="302.01" x2="105.22" y2="481.12"/>
    <line class="st1" x1="138.25" y1="301.93" x2="138.25" y2="481.04"/>
    <line class="st1" x1="237.17" y1="323.34" x2="237.17" y2="437.16"/>
    <line class="st1" x1="219.18" y1="322.43" x2="219.18" y2="449.35"/>
    <line class="st1" x1="168.61" y1="293.76" x2="168.61" y2="473.55"/>
    <line class="st1" x1="242.13" y1="377.77" x2="69.96" y2="377.77"/>
    <line class="st1" x1="242.13" y1="392.25" x2="69.96" y2="392.25"/>
  </g>
</svg>