<?xml version="1.0" encoding="UTF-8"?>
<svg id="_Слой_1" data-name="Слой_1" xmlns="http://www.w3.org/2000/svg" version="1.1" viewBox="0 0 595.28 841.89">
  <!-- Generator: Adobe Illustrator 29.0.0, SVG Export Plug-In . SVG Version: 2.1.0 Build 186)  -->
  <defs>
    <style>
      .st0, .st1 {
        stroke: #e6007e;
        stroke-miterlimit: 10;
        stroke-width: .25px;
      }

      .st2 {
        display: none;
        opacity: .5;
      }

      .st1 {
        fill: none;
      }
    </style>
  </defs>
  <g id="_модульная_сетка_на_надпись__x28_1_x29_" data-name="модульная_сетка_на_надпись__x28_1_x29_" class="st2">
    <line class="st1" x1="279.7" y1="353.36" x2="475.82" y2="353.36"/>
    <line class="st1" x1="279.7" y1="377.79" x2="475.82" y2="377.79"/>
    <line class="st1" x1="279.66" y1="358.69" x2="475.77" y2="358.69"/>
    <line class="st1" x1="279.7" y1="360.37" x2="475.82" y2="360.37"/>
    <line class="st1" x1="279.67" y1="362.98" x2="475.78" y2="362.98"/>
    <line class="st1" x1="279.66" y1="368.27" x2="475.77" y2="368.27"/>
    <line class="st1" x1="279.66" y1="372.56" x2="475.71" y2="372.56"/>
    <line class="st1" x1="279.7" y1="370.8" x2="475.82" y2="370.8"/>
    <line class="st1" x1="283.92" y1="350.79" x2="283.92" y2="379.35"/>
    <line class="st1" x1="290.56" y1="350.79" x2="290.56" y2="379.35"/>
    <line class="st1" x1="309.8" y1="350.79" x2="309.8" y2="379.35"/>
    <line class="st1" x1="316.55" y1="350.79" x2="316.55" y2="379.35"/>
    <line class="st1" x1="299.05" y1="350.79" x2="299.05" y2="379.35"/>
    <line class="st1" x1="305.81" y1="350.79" x2="305.81" y2="379.35"/>
    <line class="st1" x1="336.09" y1="350.67" x2="336.09" y2="379.23"/>
    <line class="st1" x1="342.61" y1="350.67" x2="342.61" y2="379.23"/>
    <line class="st1" x1="351.08" y1="350.67" x2="351.08" y2="379.23"/>
    <line class="st1" x1="357.8" y1="350.67" x2="357.8" y2="379.23"/>
    <line class="st1" x1="362.2" y1="350.56" x2="362.2" y2="379.12"/>
    <line class="st1" x1="368.92" y1="350.56" x2="368.92" y2="379.12"/>
    <line class="st1" x1="373.24" y1="350.56" x2="373.24" y2="379.12"/>
    <line class="st1" x1="379.97" y1="350.56" x2="379.97" y2="379.12"/>
    <line class="st1" x1="388.97" y1="350.56" x2="388.97" y2="379.12"/>
    <line class="st1" x1="395.69" y1="350.56" x2="395.69" y2="379.12"/>
    <line class="st1" x1="399.68" y1="350.56" x2="399.68" y2="379.12"/>
    <line class="st1" x1="406.4" y1="350.56" x2="406.4" y2="379.12"/>
    <line class="st1" x1="423.45" y1="350.56" x2="423.45" y2="379.12"/>
    <line class="st1" x1="430.05" y1="350.56" x2="430.05" y2="379.12"/>
    <line class="st1" x1="438.56" y1="350.56" x2="438.56" y2="379.12"/>
    <line class="st1" x1="445.16" y1="350.56" x2="445.16" y2="379.12"/>
    <line class="st1" x1="449.45" y1="350.56" x2="449.45" y2="379.12"/>
    <line class="st1" x1="456.05" y1="350.56" x2="456.05" y2="379.12"/>
    <line class="st1" x1="464.56" y1="350.56" x2="464.56" y2="379.12"/>
    <line class="st1" x1="471.16" y1="350.56" x2="471.16" y2="379.12"/>
    <line class="st1" x1="325.44" y1="350.79" x2="325.44" y2="379.35"/>
    <line class="st1" x1="332.19" y1="350.79" x2="332.19" y2="379.35"/>
    <line class="st1" x1="378.5" y1="351.48" x2="396.57" y2="378.2"/>
    <line class="st1" x1="371.48" y1="351.77" x2="389.54" y2="378.48"/>
    <line class="st1" x1="306.42" y1="363.3" x2="301.05" y2="366.36"/>
    <line class="st1" x1="301" y1="364.7" x2="306.38" y2="367.76"/>
  </g>
  <g id="_модульная_сетка_надписи__x28_2_x29_" data-name="модульная_сетка_надписи__x28_2_x29_" class="st2">
    <line class="st0" x1="281.05" y1="392.49" x2="528.71" y2="392.49"/>
    <line class="st0" x1="281.05" y1="416.16" x2="528.61" y2="416.16"/>
    <line class="st0" x1="280.99" y1="397.66" x2="528.65" y2="397.66"/>
    <line class="st0" x1="281.05" y1="399.29" x2="528.65" y2="399.29"/>
    <line class="st0" x1="281.01" y1="401.83" x2="528.61" y2="401.83"/>
    <line class="st0" x1="281" y1="406.95" x2="528.56" y2="406.95"/>
    <line class="st0" x1="280.99" y1="411.11" x2="528.48" y2="411.11"/>
    <line class="st0" x1="281.05" y1="409.4" x2="528.61" y2="409.4"/>
    <line class="st0" x1="332.62" y1="390" x2="332.62" y2="417.69"/>
    <line class="st0" x1="338.56" y1="390" x2="338.56" y2="417.69"/>
    <line class="st0" x1="345.16" y1="390" x2="345.16" y2="417.69"/>
    <line class="st0" x1="311.42" y1="390" x2="311.42" y2="417.69"/>
    <line class="st0" x1="317.66" y1="390" x2="317.66" y2="417.69"/>
    <line class="st0" x1="298.93" y1="390" x2="298.93" y2="417.69"/>
    <line class="st0" x1="305.48" y1="390" x2="305.48" y2="417.69"/>
    <line class="st0" x1="283.93" y1="390" x2="283.93" y2="417.69"/>
    <line class="st0" x1="290.47" y1="390" x2="290.47" y2="417.69"/>
    <line class="st0" x1="326.37" y1="390" x2="326.37" y2="417.69"/>
    <line class="st0" x1="358.14" y1="390" x2="358.14" y2="417.69"/>
    <line class="st0" x1="361.42" y1="389.88" x2="361.42" y2="417.58"/>
    <line class="st0" x1="347.73" y1="390" x2="347.73" y2="417.69"/>
    <line class="st0" x1="354.71" y1="390" x2="354.71" y2="417.69"/>
    <line class="st0" x1="391.61" y1="390.78" x2="376.45" y2="413.96"/>
    <line class="st0" x1="385.7" y1="389.23" x2="374.37" y2="406.55"/>
    <line class="st0" x1="365.74" y1="391.13" x2="380.9" y2="414.31"/>
    <line class="st0" x1="371.66" y1="389.58" x2="382.99" y2="406.9"/>
    <line class="st0" x1="362.85" y1="390.78" x2="347.69" y2="413.96"/>
    <line class="st0" x1="357.09" y1="389.4" x2="345.76" y2="406.73"/>
    <line class="st0" x1="337.14" y1="391.13" x2="352.3" y2="414.31"/>
    <line class="st0" x1="343.06" y1="389.75" x2="354.39" y2="407.07"/>
    <line class="st0" x1="389.96" y1="389.88" x2="389.96" y2="417.58"/>
    <line class="st0" x1="395.84" y1="389.88" x2="395.84" y2="417.58"/>
    <line class="st0" x1="402.36" y1="389.88" x2="402.36" y2="417.58"/>
    <line class="st0" x1="410.93" y1="389.77" x2="410.93" y2="417.47"/>
    <line class="st0" x1="417.45" y1="389.77" x2="417.45" y2="417.47"/>
    <line class="st0" x1="423.34" y1="389.88" x2="423.34" y2="417.58"/>
    <line class="st0" x1="429.82" y1="390.05" x2="429.82" y2="417.75"/>
    <line class="st0" x1="438.56" y1="390.05" x2="438.56" y2="417.75"/>
    <line class="st0" x1="444.89" y1="390.05" x2="444.89" y2="417.75"/>
    <line class="st0" x1="450.85" y1="389.77" x2="450.85" y2="417.47"/>
    <line class="st0" x1="457.37" y1="389.77" x2="457.37" y2="417.47"/>
    <line class="st0" x1="466.03" y1="390.05" x2="466.03" y2="417.75"/>
    <line class="st0" x1="472.42" y1="390.05" x2="472.42" y2="417.75"/>
    <line class="st0" x1="478.43" y1="389.77" x2="478.43" y2="417.47"/>
    <line class="st0" x1="484.83" y1="389.77" x2="484.83" y2="417.47"/>
    <line class="st0" x1="493.85" y1="389.77" x2="493.85" y2="417.47"/>
    <line class="st0" x1="500.25" y1="389.77" x2="500.25" y2="417.47"/>
    <line class="st0" x1="506.26" y1="389.77" x2="506.26" y2="417.47"/>
    <line class="st0" x1="512.66" y1="389.77" x2="512.66" y2="417.47"/>
    <line class="st0" x1="520.7" y1="389.77" x2="520.7" y2="417.47"/>
    <line class="st0" x1="527.1" y1="389.77" x2="527.1" y2="417.47"/>
    <line class="st0" x1="367.2" y1="389.88" x2="367.2" y2="417.58"/>
    <line class="st0" x1="373.75" y1="389.88" x2="373.75" y2="417.58"/>
    <line class="st0" x1="428.41" y1="390.95" x2="445.92" y2="416.86"/>
    <line class="st0" x1="421.59" y1="391.22" x2="439.11" y2="417.14"/>
    <line class="st0" x1="475.69" y1="405.23" x2="466.59" y2="418.18"/>
    <line class="st0" x1="473.4" y1="398.21" x2="459.63" y2="417.82"/>
    <line class="st0" x1="459.97" y1="391.41" x2="473.59" y2="410.82"/>
    <line class="st0" x1="465.7" y1="389.3" x2="476.02" y2="404"/>
  </g>
  <g id="_модульная_сетка" data-name="модульная_сетка" class="st2">
    <line class="st1" x1="159.59" y1="300" x2="78.19" y2="346.68"/>
    <line class="st1" x1="160.73" y1="320.11" x2="79.33" y2="366.79"/>
    <line class="st1" x1="164.47" y1="351.13" x2="83.07" y2="397.82"/>
    <line class="st1" x1="242.13" y1="404.96" x2="160.73" y2="451.64"/>
    <line class="st1" x1="243.67" y1="425.09" x2="162.27" y2="471.77"/>
    <line class="st1" x1="82.35" y1="404.96" x2="163.75" y2="451.64"/>
    <line class="st1" x1="80.27" y1="424.67" x2="161.67" y2="471.35"/>
    <line class="st1" x1="165.99" y1="300.4" x2="247.39" y2="347.09"/>
    <line class="st1" x1="163.91" y1="320.11" x2="245.31" y2="366.79"/>
    <line class="st1" x1="160.73" y1="375.15" x2="114.07" y2="401.91"/>
    <line class="st1" x1="99.45" y1="380.24" x2="160.73" y2="415.39"/>
    <line class="st1" x1="111.93" y1="366.79" x2="160.73" y2="394.78"/>
    <line class="st1" x1="87.25" y1="330.37" x2="87.25" y2="438.42"/>
    <line class="st1" x1="156.09" y1="294.44" x2="156.09" y2="473.55"/>
    <line class="st1" x1="186.73" y1="294.44" x2="186.73" y2="473.55"/>
    <line class="st1" x1="105.22" y1="302.01" x2="105.22" y2="481.12"/>
    <line class="st1" x1="138.25" y1="301.93" x2="138.25" y2="481.04"/>
    <line class="st1" x1="237.17" y1="323.34" x2="237.17" y2="437.16"/>
    <line class="st1" x1="219.18" y1="322.43" x2="219.18" y2="449.35"/>
    <line class="st1" x1="168.61" y1="293.76" x2="168.61" y2="473.55"/>
    <line class="st1" x1="242.13" y1="377.77" x2="69.96" y2="377.77"/>
    <line class="st1" x1="242.13" y1="392.25" x2="69.96" y2="392.25"/>
  </g>
  <g id="_знак" data-name="знак">
    <polygon points="377.59 276.33 377.59 316.98 357.65 316.98 357.65 288.08 321.05 266.99 321.05 383.33 357.65 362.23 357.65 333.16 377.59 333.16 377.59 373.92 368.89 378.93 320.98 406.53 311.1 412.22 301.12 417.97 301.12 232.27 377.59 276.33"/>
    <path d="M286.94,232.27l-76.81,44.06v97.59s19.94,11.22,19.94,11.22l36.93,21.32,19.95,11.51v-84.81l-8.84-5.1-5.21-3,14.05-8.09v-84.71ZM266.99,383.38l-36.93-21.14v-29.07h16.94l19.99,11.51v38.7ZM266.99,304.13l-22.3,12.85h-14.62v-28.9l36.93-21.08v37.14Z"/>
  </g>
  <g id="_надпись" data-name="надпись">
    <g>
      <g>
        <polygon points="263.09 453.55 276.44 453.55 276.44 502.37 263.23 502.37 263.09 453.55"/>
        <polygon points="285.15 453.55 298.52 453.55 316.7 480.54 316.71 453.55 330.11 453.55 330.11 502.37 316.71 502.37 298.52 475.65 298.49 502.37 285.15 502.37 285.15 453.55"/>
        <polygon points="338.09 453.55 377.71 453.55 377.71 463.99 351.56 463.99 351.56 471.8 375.08 471.8 375.08 481.69 351.56 481.69 351.56 491.33 377.71 491.33 377.71 502.37 338.09 502.37 338.09 453.55"/>
        <polygon points="202.94 453.45 202.94 502.37 158.08 502.37 158.08 453.57 171.51 453.57 171.51 491.48 189.53 491.48 189.53 453.45 202.94 453.45"/>
        <polygon points="429.17 472.91 429.17 502.37 385.69 502.37 385.69 488.56 399.07 488.56 399.07 492.07 415.79 492.07 415.79 483.21 385.69 483.21 385.69 453.55 429.13 453.55 429.13 467.36 415.79 467.36 415.79 463.93 398.75 463.93 398.75 472.91 429.17 472.91"/>
        <polygon points="254.21 472.89 254.21 502.35 210.74 502.35 210.74 488.54 224.11 488.54 224.11 492.05 240.84 492.05 240.84 483.19 210.74 483.19 210.74 453.56 254.17 453.56 254.17 467.34 240.84 467.34 240.84 463.9 223.79 463.9 223.79 472.89 254.21 472.89"/>
        <polygon points="481.25 472.92 481.25 502.38 437.77 502.38 437.77 488.57 451.14 488.57 451.14 492.08 467.87 492.08 467.87 483.22 437.77 483.22 437.77 453.56 481.21 453.59 481.21 467.37 467.87 467.37 467.87 463.94 450.82 463.94 450.82 472.92 481.25 472.92"/>
      </g>
      <path d="M149.95,472.84h-.03v-19.34h-43.45v48.82h43.48v-20.53l-6.85-3.94,6.85-3.91v-1.09ZM136.57,492.01h-16.71v-8.87h16.71v8.87ZM136.57,472.84h-17.02v-8.99h17.02v8.99Z"/>
    </g>
    <g id="_командос" data-name="командос">
      <polygon points="276.24 516.26 276.24 542.37 269.1 542.37 269.08 528.08 264.94 534.16 264.39 534.98 262.77 534.98 262.48 534.55 258.08 528.08 258.06 542.37 250.92 542.37 250.92 516.26 258.08 516.26 262.94 523.49 264.22 523.49 269.08 516.26 276.24 516.26"/>
      <polygon points="244.31 516.27 244.31 542.38 237.17 542.38 237.15 528.08 233.01 534.17 232.41 534.98 230.84 534.98 230.55 534.56 226.15 528.08 226.13 542.38 218.99 542.38 218.99 516.27 226.15 516.27 231.01 523.49 232.29 523.49 237.15 516.27 244.31 516.27"/>
      <path d="M282.85,516.26v26.1h7.22v-10.25h9.6v10.25h7.22v-26.1h-24.04ZM299.68,526.62h-9.6v-4.53h9.6v4.53Z"/>
      <path d="M367.76,522.51l-.29-.43-1.55-2.18-2.57-3.6h-2.36l-16.83-.03v26.08l7.22-.02,5.13-.03h6.88l.03-.02,3.42-4.82.65-.92.03-.03.69-.98v-12.41l-.45-.62ZM360.99,534.62l-1.39,1.93h-8.22v-14.48h8.2l1.41,1.96v10.58Z"/>
      <path d="M188.73,516.27v26.1h23.64v-26.1h-23.64ZM205.4,536.57h-9.71v-14.49h9.71v14.49Z"/>
      <path d="M374.82,516.28v26.1h24.49v-26.1h-24.49ZM392.09,536.58h-10.05v-14.5h10.05v14.5Z"/>
      <polygon points="182.11 516.27 182.11 523.65 174.9 523.65 174.9 522.1 165.29 522.1 165.29 536.57 174.9 536.57 174.9 534.97 182.11 534.97 182.11 542.38 158.08 542.36 158.08 516.27 182.11 516.27"/>
      <polygon points="313.51 516.28 320.66 516.27 330.38 530.7 330.38 516.27 337.54 516.27 337.54 542.37 330.38 542.37 320.66 528.08 320.64 542.37 313.51 542.37 313.51 516.28"/>
      <polygon points="429.17 526.62 429.17 542.36 405.93 542.36 405.93 534.98 413.08 534.98 413.08 536.86 422.02 536.86 422.02 532.12 405.93 532.12 405.93 516.27 429.15 516.27 429.15 523.65 422.02 523.65 422.02 521.81 412.91 521.81 412.91 526.62 429.17 526.62"/>
    </g>
  </g>
</svg>