<?xml version="1.0" encoding="UTF-8"?>
<svg id="_Слой_1" data-name="Слой_1" xmlns="http://www.w3.org/2000/svg" version="1.1" viewBox="0 0 595.28 841.89">
  <!-- Generator: Adobe Illustrator 29.0.0, SVG Export Plug-In . SVG Version: 2.1.0 Build 186)  -->
  <defs>
    <style>
      .st0, .st1 {
        stroke: #e6007e;
        stroke-miterlimit: 10;
        stroke-width: .25px;
      }

      .st2 {
        display: none;
        opacity: .5;
      }

      .st1 {
        fill: none;
      }
    </style>
  </defs>
  <g id="_модульная_сетка_на_надпись__x28_1_x29_" data-name="модульная_сетка_на_надпись__x28_1_x29_" class="st2">
    <line class="st1" x1="279.7" y1="353.36" x2="475.82" y2="353.36"/>
    <line class="st1" x1="279.7" y1="377.79" x2="475.82" y2="377.79"/>
    <line class="st1" x1="279.66" y1="358.69" x2="475.77" y2="358.69"/>
    <line class="st1" x1="279.7" y1="360.37" x2="475.82" y2="360.37"/>
    <line class="st1" x1="279.67" y1="362.98" x2="475.78" y2="362.98"/>
    <line class="st1" x1="279.66" y1="368.27" x2="475.77" y2="368.27"/>
    <line class="st1" x1="279.66" y1="372.56" x2="475.71" y2="372.56"/>
    <line class="st1" x1="279.7" y1="370.8" x2="475.82" y2="370.8"/>
    <line class="st1" x1="283.92" y1="350.79" x2="283.92" y2="379.35"/>
    <line class="st1" x1="290.56" y1="350.79" x2="290.56" y2="379.35"/>
    <line class="st1" x1="309.8" y1="350.79" x2="309.8" y2="379.35"/>
    <line class="st1" x1="316.55" y1="350.79" x2="316.55" y2="379.35"/>
    <line class="st1" x1="299.05" y1="350.79" x2="299.05" y2="379.35"/>
    <line class="st1" x1="305.81" y1="350.79" x2="305.81" y2="379.35"/>
    <line class="st1" x1="336.09" y1="350.67" x2="336.09" y2="379.23"/>
    <line class="st1" x1="342.61" y1="350.67" x2="342.61" y2="379.23"/>
    <line class="st1" x1="351.08" y1="350.67" x2="351.08" y2="379.23"/>
    <line class="st1" x1="357.8" y1="350.67" x2="357.8" y2="379.23"/>
    <line class="st1" x1="362.2" y1="350.56" x2="362.2" y2="379.12"/>
    <line class="st1" x1="368.92" y1="350.56" x2="368.92" y2="379.12"/>
    <line class="st1" x1="373.24" y1="350.56" x2="373.24" y2="379.12"/>
    <line class="st1" x1="379.97" y1="350.56" x2="379.97" y2="379.12"/>
    <line class="st1" x1="388.97" y1="350.56" x2="388.97" y2="379.12"/>
    <line class="st1" x1="395.69" y1="350.56" x2="395.69" y2="379.12"/>
    <line class="st1" x1="399.68" y1="350.56" x2="399.68" y2="379.12"/>
    <line class="st1" x1="406.4" y1="350.56" x2="406.4" y2="379.12"/>
    <line class="st1" x1="423.45" y1="350.56" x2="423.45" y2="379.12"/>
    <line class="st1" x1="430.05" y1="350.56" x2="430.05" y2="379.12"/>
    <line class="st1" x1="438.56" y1="350.56" x2="438.56" y2="379.12"/>
    <line class="st1" x1="445.16" y1="350.56" x2="445.16" y2="379.12"/>
    <line class="st1" x1="449.45" y1="350.56" x2="449.45" y2="379.12"/>
    <line class="st1" x1="456.05" y1="350.56" x2="456.05" y2="379.12"/>
    <line class="st1" x1="464.56" y1="350.56" x2="464.56" y2="379.12"/>
    <line class="st1" x1="471.16" y1="350.56" x2="471.16" y2="379.12"/>
    <line class="st1" x1="325.44" y1="350.79" x2="325.44" y2="379.35"/>
    <line class="st1" x1="332.19" y1="350.79" x2="332.19" y2="379.35"/>
    <line class="st1" x1="378.5" y1="351.48" x2="396.57" y2="378.2"/>
    <line class="st1" x1="371.48" y1="351.77" x2="389.54" y2="378.48"/>
    <line class="st1" x1="306.42" y1="363.3" x2="301.05" y2="366.36"/>
    <line class="st1" x1="301" y1="364.7" x2="306.38" y2="367.76"/>
  </g>
  <g id="_модульная_сетка_надписи__x28_2_x29_" data-name="модульная_сетка_надписи__x28_2_x29_" class="st2">
    <line class="st0" x1="281.05" y1="392.49" x2="528.71" y2="392.49"/>
    <line class="st0" x1="281.05" y1="416.16" x2="528.61" y2="416.16"/>
    <line class="st0" x1="280.99" y1="397.66" x2="528.65" y2="397.66"/>
    <line class="st0" x1="281.05" y1="399.29" x2="528.65" y2="399.29"/>
    <line class="st0" x1="281.01" y1="401.83" x2="528.61" y2="401.83"/>
    <line class="st0" x1="281" y1="406.95" x2="528.56" y2="406.95"/>
    <line class="st0" x1="280.99" y1="411.11" x2="528.48" y2="411.11"/>
    <line class="st0" x1="281.05" y1="409.4" x2="528.61" y2="409.4"/>
    <line class="st0" x1="332.62" y1="390" x2="332.62" y2="417.69"/>
    <line class="st0" x1="338.56" y1="390" x2="338.56" y2="417.69"/>
    <line class="st0" x1="345.16" y1="390" x2="345.16" y2="417.69"/>
    <line class="st0" x1="311.42" y1="390" x2="311.42" y2="417.69"/>
    <line class="st0" x1="317.66" y1="390" x2="317.66" y2="417.69"/>
    <line class="st0" x1="298.93" y1="390" x2="298.93" y2="417.69"/>
    <line class="st0" x1="305.48" y1="390" x2="305.48" y2="417.69"/>
    <line class="st0" x1="283.93" y1="390" x2="283.93" y2="417.69"/>
    <line class="st0" x1="290.47" y1="390" x2="290.47" y2="417.69"/>
    <line class="st0" x1="326.37" y1="390" x2="326.37" y2="417.69"/>
    <line class="st0" x1="358.14" y1="390" x2="358.14" y2="417.69"/>
    <line class="st0" x1="361.42" y1="389.88" x2="361.42" y2="417.58"/>
    <line class="st0" x1="347.73" y1="390" x2="347.73" y2="417.69"/>
    <line class="st0" x1="354.71" y1="390" x2="354.71" y2="417.69"/>
    <line class="st0" x1="391.61" y1="390.78" x2="376.45" y2="413.96"/>
    <line class="st0" x1="385.7" y1="389.23" x2="374.37" y2="406.55"/>
    <line class="st0" x1="365.74" y1="391.13" x2="380.9" y2="414.31"/>
    <line class="st0" x1="371.66" y1="389.58" x2="382.99" y2="406.9"/>
    <line class="st0" x1="362.85" y1="390.78" x2="347.69" y2="413.96"/>
    <line class="st0" x1="357.09" y1="389.4" x2="345.76" y2="406.73"/>
    <line class="st0" x1="337.14" y1="391.13" x2="352.3" y2="414.31"/>
    <line class="st0" x1="343.06" y1="389.75" x2="354.39" y2="407.07"/>
    <line class="st0" x1="389.96" y1="389.88" x2="389.96" y2="417.58"/>
    <line class="st0" x1="395.84" y1="389.88" x2="395.84" y2="417.58"/>
    <line class="st0" x1="402.36" y1="389.88" x2="402.36" y2="417.58"/>
    <line class="st0" x1="410.93" y1="389.77" x2="410.93" y2="417.47"/>
    <line class="st0" x1="417.45" y1="389.77" x2="417.45" y2="417.47"/>
    <line class="st0" x1="423.34" y1="389.88" x2="423.34" y2="417.58"/>
    <line class="st0" x1="429.82" y1="390.05" x2="429.82" y2="417.75"/>
    <line class="st0" x1="438.56" y1="390.05" x2="438.56" y2="417.75"/>
    <line class="st0" x1="444.89" y1="390.05" x2="444.89" y2="417.75"/>
    <line class="st0" x1="450.85" y1="389.77" x2="450.85" y2="417.47"/>
    <line class="st0" x1="457.37" y1="389.77" x2="457.37" y2="417.47"/>
    <line class="st0" x1="466.03" y1="390.05" x2="466.03" y2="417.75"/>
    <line class="st0" x1="472.42" y1="390.05" x2="472.42" y2="417.75"/>
    <line class="st0" x1="478.43" y1="389.77" x2="478.43" y2="417.47"/>
    <line class="st0" x1="484.83" y1="389.77" x2="484.83" y2="417.47"/>
    <line class="st0" x1="493.85" y1="389.77" x2="493.85" y2="417.47"/>
    <line class="st0" x1="500.25" y1="389.77" x2="500.25" y2="417.47"/>
    <line class="st0" x1="506.26" y1="389.77" x2="506.26" y2="417.47"/>
    <line class="st0" x1="512.66" y1="389.77" x2="512.66" y2="417.47"/>
    <line class="st0" x1="520.7" y1="389.77" x2="520.7" y2="417.47"/>
    <line class="st0" x1="527.1" y1="389.77" x2="527.1" y2="417.47"/>
    <line class="st0" x1="367.2" y1="389.88" x2="367.2" y2="417.58"/>
    <line class="st0" x1="373.75" y1="389.88" x2="373.75" y2="417.58"/>
    <line class="st0" x1="428.41" y1="390.95" x2="445.92" y2="416.86"/>
    <line class="st0" x1="421.59" y1="391.22" x2="439.11" y2="417.14"/>
    <line class="st0" x1="475.69" y1="405.23" x2="466.59" y2="418.18"/>
    <line class="st0" x1="473.4" y1="398.21" x2="459.63" y2="417.82"/>
    <line class="st0" x1="459.97" y1="391.41" x2="473.59" y2="410.82"/>
    <line class="st0" x1="465.7" y1="389.3" x2="476.02" y2="404"/>
  </g>
  <g id="_модульная_сетка" data-name="модульная_сетка" class="st2">
    <line class="st1" x1="159.59" y1="300" x2="78.19" y2="346.68"/>
    <line class="st1" x1="160.73" y1="320.11" x2="79.33" y2="366.79"/>
    <line class="st1" x1="164.47" y1="351.13" x2="83.07" y2="397.82"/>
    <line class="st1" x1="242.13" y1="404.96" x2="160.73" y2="451.64"/>
    <line class="st1" x1="243.67" y1="425.09" x2="162.27" y2="471.77"/>
    <line class="st1" x1="82.35" y1="404.96" x2="163.75" y2="451.64"/>
    <line class="st1" x1="80.27" y1="424.67" x2="161.67" y2="471.35"/>
    <line class="st1" x1="165.99" y1="300.4" x2="247.39" y2="347.09"/>
    <line class="st1" x1="163.91" y1="320.11" x2="245.31" y2="366.79"/>
    <line class="st1" x1="160.73" y1="375.15" x2="114.07" y2="401.91"/>
    <line class="st1" x1="99.45" y1="380.24" x2="160.73" y2="415.39"/>
    <line class="st1" x1="111.93" y1="366.79" x2="160.73" y2="394.78"/>
    <line class="st1" x1="87.25" y1="330.37" x2="87.25" y2="438.42"/>
    <line class="st1" x1="156.09" y1="294.44" x2="156.09" y2="473.55"/>
    <line class="st1" x1="186.73" y1="294.44" x2="186.73" y2="473.55"/>
    <line class="st1" x1="105.22" y1="302.01" x2="105.22" y2="481.12"/>
    <line class="st1" x1="138.25" y1="301.93" x2="138.25" y2="481.04"/>
    <line class="st1" x1="237.17" y1="323.34" x2="237.17" y2="437.16"/>
    <line class="st1" x1="219.18" y1="322.43" x2="219.18" y2="449.35"/>
    <line class="st1" x1="168.61" y1="293.76" x2="168.61" y2="473.55"/>
    <line class="st1" x1="242.13" y1="377.77" x2="69.96" y2="377.77"/>
    <line class="st1" x1="242.13" y1="392.25" x2="69.96" y2="392.25"/>
  </g>
  <g id="_знак" data-name="знак">
    <polygon points="221.65 374.19 221.65 402.87 207.59 402.87 207.59 382.48 181.77 367.61 181.77 449.68 207.59 434.8 207.59 414.29 221.65 414.29 221.65 443.05 215.52 446.58 181.71 466.06 174.75 470.07 167.7 474.13 167.7 343.11 221.65 374.19"/>
    <path d="M157.7,343.11l-54.19,31.08v68.85s14.07,7.92,14.07,7.92l26.05,15.04,14.07,8.12v-59.84l-6.24-3.6-3.68-2.11,9.92-5.7v-59.76ZM143.62,449.72l-26.05-14.92v-20.51h11.95l14.1,8.12v27.31ZM143.62,393.81l-15.74,9.06h-10.32v-20.39l26.05-14.87v26.2Z"/>
  </g>
  <g id="_надпись" data-name="надпись">
    <g id="_надпись1" data-name="надпись">
      <g id="_командос" data-name="командос">
        <polygon points="354.53 414.27 354.53 443.01 346.67 443.01 346.65 427.28 342.09 433.98 341.48 434.88 339.7 434.88 339.38 434.41 334.53 427.28 334.52 443.01 326.66 443.01 326.66 414.27 334.53 414.27 339.89 422.23 341.29 422.23 346.65 414.27 354.53 414.27"/>
        <polygon points="322.02 414.28 322.02 443.02 314.17 443.02 314.15 427.28 309.59 433.98 308.93 434.88 307.2 434.88 306.88 434.41 302.03 427.28 302.02 443.02 294.16 443.02 294.16 414.28 302.03 414.28 307.39 422.23 308.79 422.23 314.15 414.28 322.02 414.28"/>
        <path d="M359.16,414.29v28.74h7.95v-11.28h10.57v11.28h7.95v-28.74h-26.47ZM377.68,425.69h-10.57v-4.98h10.57v4.98Z"/>
        <path d="M447.33,421.19l-.32-.47-1.71-2.4-2.83-3.96h-2.6l-18.53-.03v28.71l7.95-.02,5.65-.03h7.58l.03-.02,3.77-5.31.72-1.01.03-.03.76-1.08v-13.67l-.49-.69ZM439.88,434.52l-1.53,2.13h-9.05v-15.94h9.03l1.55,2.16v11.65Z"/>
        <path d="M262.67,414.28v28.74h26.65v-28.74h-26.65ZM281.47,436.62h-10.95v-15.95h10.95v15.95Z"/>
        <path d="M452.46,414.27v28.74h26.96v-28.74h-26.96ZM471.47,436.62h-11.06v-15.96h11.06v15.96Z"/>
        <polygon points="257.84 414.3 257.84 422.42 250.08 422.42 250.08 420.71 239.74 420.71 239.74 436.64 250.08 436.64 250.08 434.89 257.84 434.89 257.84 443.04 232 443.02 232 414.3 257.84 414.3"/>
        <polygon points="390.26 414.31 398.13 414.3 408.82 430.18 408.83 414.3 416.71 414.3 416.71 443.03 408.83 443.03 398.13 427.3 398.11 443.03 390.26 443.03 390.26 414.31"/>
      </g>
    </g>
    <g id="_бизнес" data-name="бизнес">
      <g>
        <polygon points="326.66 373.87 334.59 373.87 334.59 402.88 326.74 402.88 326.66 373.87"/>
        <polygon points="338.97 373.9 346.91 373.9 357.71 389.93 357.72 373.9 365.68 373.9 365.68 402.91 357.72 402.91 346.91 387.03 346.89 402.91 338.97 402.91 338.97 373.9"/>
        <polygon points="370.31 373.9 398.18 373.9 398.19 380.07 378.32 380.07 378.31 385.4 398.18 385.4 398.19 391.52 378.32 391.52 378.32 396.79 398.18 396.79 398.18 402.91 370.31 402.91 370.31 373.9"/>
        <polygon points="289.32 373.83 289.32 402.91 262.67 402.91 262.67 373.91 270.65 373.91 270.65 396.44 281.36 396.44 281.36 373.83 289.32 373.83"/>
        <polygon points="322.02 385.36 322.02 402.87 294.16 402.87 294.16 394.66 302.11 394.66 302.11 396.75 314.1 396.75 314.1 391.48 294.16 391.48 294.16 373.88 322.02 373.88 322.02 382.06 314.1 382.06 314.1 380.02 301.92 380.02 301.92 385.36 322.02 385.36"/>
        <polygon points="430.65 385.39 430.65 402.9 402.78 402.9 402.78 394.69 410.73 394.69 410.73 396.78 422.72 396.78 422.72 391.51 402.78 391.51 402.78 373.91 430.65 373.91 430.65 382.09 422.72 382.09 422.72 380.05 410.54 380.05 410.54 385.39 430.65 385.39"/>
        <polygon points="463.15 385.39 463.15 402.9 435.28 402.9 435.28 394.69 443.23 394.69 443.23 396.78 455.22 396.78 455.22 391.51 435.28 391.51 435.28 373.91 463.15 373.91 463.15 382.09 455.22 382.09 455.22 380.05 443.04 380.05 443.04 385.39 463.15 385.39"/>
        <polygon points="511.92 425.49 511.92 443 484.05 443 484.05 434.79 492 434.79 492 436.88 503.99 436.88 503.99 431.61 484.05 431.61 484.05 414.01 511.92 414.01 511.92 422.19 503.99 422.19 503.99 420.15 491.81 420.15 491.81 425.49 511.92 425.49"/>
      </g>
      <path d="M257.84,385.36h-.02v-11.49h-25.82v29.01h25.84v-12.2l-4.07-2.34,4.07-2.33v-.65ZM249.89,396.75h-9.93v-5.27h9.93v5.27ZM249.89,385.36h-10.11v-5.34h10.11v5.34Z"/>
    </g>
  </g>
</svg>