<svg xmlns="http://www.w3.org/2000/svg" viewBox="64.55 298.98 162.46 162.46">
  <rect x="64.55" y="298.98" width="162.46" height="162.46" rx="20" fill="#0F172A"/>
  <g fill="#F59E0B">
    <polygon points="204.86 345.79 204.86 374.47 190.8 374.47 190.8 354.07 164.97 339.2 164.97 421.28 190.8 406.39 190.8 385.89 204.86 385.89 204.86 414.64 198.73 418.18 164.92 437.65 157.95 441.66 150.91 445.72 150.91 314.7 204.86 345.79"/>
    <path d="M140.9,314.7l-54.19,31.08v68.85s14.07,7.92,14.07,7.92l26.05,15.04,14.07,8.12v-59.84l-6.24-3.6-3.68-2.11,9.92-5.7v-59.76ZM126.83,421.31l-26.05-14.92v-20.51h11.95l14.1,8.12v27.31ZM126.83,365.4l-15.74,9.06h-10.32v-20.39l26.05-14.87v26.2Z"/>
  </g>
</svg>
